<?xml version="1.0" encoding="UTF-8"?>
<!--Generator: Apple Native CoreSVG 149-->
<!DOCTYPE svg
PUBLIC "-//W3C//DTD SVG 1.1//EN"
       "http://www.w3.org/Graphics/SVG/1.1/DTD/svg11.dtd">
<svg version="1.1" xmlns="http://www.w3.org/2000/svg" xmlns:xlink="http://www.w3.org/1999/xlink" width="3300" height="2200">
 <!--glyph: "uni100492.medium", point size: 100.000000, font version: "Version 16.0d12e3", template writer version: "8"-->
 <g id="Notes">
  <rect height="2200" id="artboard" style="fill:white;opacity:1" width="3300" x="0" y="0"/>
  <line id="" style="fill:none;stroke:black;opacity:1;stroke-width:0.5;" x1="263" x2="3036" y1="292" y2="292"/>
  <text style="stroke:none;fill:black;font-family:-apple-system,&quot;SF Pro Display&quot;,&quot;SF Pro Text&quot;,Helvetica,sans-serif;font-weight:bold;" transform="matrix(1 0 0 1 263 322)">Weight/Scale Variations</text>
  <text style="stroke:none;fill:black;font-family:-apple-system,&quot;SF Pro Display&quot;,&quot;SF Pro Text&quot;,Helvetica,sans-serif;text-anchor:middle;" transform="matrix(1 0 0 1 559.711 322)">Ultralight</text>
  <text style="stroke:none;fill:black;font-family:-apple-system,&quot;SF Pro Display&quot;,&quot;SF Pro Text&quot;,Helvetica,sans-serif;text-anchor:middle;" transform="matrix(1 0 0 1 856.422 322)">Thin</text>
  <text style="stroke:none;fill:black;font-family:-apple-system,&quot;SF Pro Display&quot;,&quot;SF Pro Text&quot;,Helvetica,sans-serif;text-anchor:middle;" transform="matrix(1 0 0 1 1153.13 322)">Light</text>
  <text style="stroke:none;fill:black;font-family:-apple-system,&quot;SF Pro Display&quot;,&quot;SF Pro Text&quot;,Helvetica,sans-serif;text-anchor:middle;" transform="matrix(1 0 0 1 1449.84 322)">Regular</text>
  <text style="stroke:none;fill:black;font-family:-apple-system,&quot;SF Pro Display&quot;,&quot;SF Pro Text&quot;,Helvetica,sans-serif;text-anchor:middle;" transform="matrix(1 0 0 1 1746.56 322)">Medium</text>
  <text style="stroke:none;fill:black;font-family:-apple-system,&quot;SF Pro Display&quot;,&quot;SF Pro Text&quot;,Helvetica,sans-serif;text-anchor:middle;" transform="matrix(1 0 0 1 2043.27 322)">Semibold</text>
  <text style="stroke:none;fill:black;font-family:-apple-system,&quot;SF Pro Display&quot;,&quot;SF Pro Text&quot;,Helvetica,sans-serif;text-anchor:middle;" transform="matrix(1 0 0 1 2339.98 322)">Bold</text>
  <text style="stroke:none;fill:black;font-family:-apple-system,&quot;SF Pro Display&quot;,&quot;SF Pro Text&quot;,Helvetica,sans-serif;text-anchor:middle;" transform="matrix(1 0 0 1 2636.69 322)">Heavy</text>
  <text style="stroke:none;fill:black;font-family:-apple-system,&quot;SF Pro Display&quot;,&quot;SF Pro Text&quot;,Helvetica,sans-serif;text-anchor:middle;" transform="matrix(1 0 0 1 2933.4 322)">Black</text>
  <line id="" style="fill:none;stroke:black;opacity:1;stroke-width:0.5;" x1="263" x2="3036" y1="1903" y2="1903"/>
  <g id="" transform="matrix(1 0 0 1 263 1933)">
   <path d="M9.24805 0.830078C13.5547 0.830078 17.1387-2.74414 17.1387-7.05078C17.1387-11.3574 13.5449-14.9316 9.23828-14.9316C4.94141-14.9316 1.36719-11.3574 1.36719-7.05078C1.36719-2.74414 4.95117 0.830078 9.24805 0.830078ZM9.24805-0.654297C5.70312-0.654297 2.87109-3.49609 2.87109-7.05078C2.87109-10.6055 5.69336-13.4473 9.23828-13.4473C12.793-13.4473 15.6348-10.6055 15.6445-7.05078C15.6543-3.49609 12.8027-0.654297 9.24805-0.654297ZM9.22852-3.62305C9.69727-3.62305 9.9707-3.93555 9.9707-4.45312L9.9707-6.31836L12.002-6.31836C12.5-6.31836 12.832-6.57227 12.832-7.04102C12.832-7.51953 12.5195-7.7832 12.002-7.7832L9.9707-7.7832L9.9707-9.81445C9.9707-10.332 9.69727-10.6543 9.22852-10.6543C8.75977-10.6543 8.50586-10.3125 8.50586-9.81445L8.50586-7.7832L6.49414-7.7832C5.97656-7.7832 5.64453-7.51953 5.64453-7.04102C5.64453-6.57227 5.99609-6.31836 6.49414-6.31836L8.50586-6.31836L8.50586-4.45312C8.50586-3.95508 8.75977-3.62305 9.22852-3.62305Z"/>
  </g>
  <g id="" transform="matrix(1 0 0 1 281.506 1933)">
   <path d="M11.709 2.91016C17.1582 2.91016 21.6699-1.61133 21.6699-7.05078C21.6699-12.5 17.1484-17.0117 11.6992-17.0117C6.25977-17.0117 1.74805-12.5 1.74805-7.05078C1.74805-1.61133 6.26953 2.91016 11.709 2.91016ZM11.709 1.25C7.09961 1.25 3.41797-2.44141 3.41797-7.05078C3.41797-11.6602 7.08984-15.3516 11.6992-15.3516C16.3086-15.3516 20-11.6602 20.0098-7.05078C20.0195-2.44141 16.3184 1.25 11.709 1.25ZM11.6797-2.66602C12.207-2.66602 12.5098-3.01758 12.5098-3.59375L12.5098-6.23047L15.3223-6.23047C15.8691-6.23047 16.25-6.51367 16.25-7.03125C16.25-7.55859 15.8887-7.86133 15.3223-7.86133L12.5098-7.86133L12.5098-10.6836C12.5098-11.25 12.207-11.6113 11.6797-11.6113C11.1621-11.6113 10.8789-11.2305 10.8789-10.6836L10.8789-7.86133L8.07617-7.86133C7.50977-7.86133 7.13867-7.55859 7.13867-7.03125C7.13867-6.51367 7.5293-6.23047 8.07617-6.23047L10.8789-6.23047L10.8789-3.59375C10.8789-3.03711 11.1621-2.66602 11.6797-2.66602Z"/>
  </g>
  <g id="" transform="matrix(1 0 0 1 304.924 1933)">
   <path d="M14.9707 5.66406C21.9336 5.66406 27.6953-0.0976562 27.6953-7.05078C27.6953-14.0137 21.9238-19.7754 14.9609-19.7754C8.00781-19.7754 2.25586-14.0137 2.25586-7.05078C2.25586-0.0976562 8.01758 5.66406 14.9707 5.66406ZM14.9707 3.84766C8.93555 3.84766 4.08203-1.01562 4.08203-7.05078C4.08203-13.0957 8.92578-17.9492 14.9609-17.9492C21.0059-17.9492 25.8594-13.0957 25.8691-7.05078C25.8789-1.01562 21.0156 3.84766 14.9707 3.84766ZM14.9414-1.38672C15.5176-1.38672 15.8594-1.77734 15.8594-2.38281L15.8594-6.13281L19.7754-6.13281C20.3711-6.13281 20.7812-6.46484 20.7812-7.02148C20.7812-7.59766 20.3906-7.93945 19.7754-7.93945L15.8594-7.93945L15.8594-11.8652C15.8594-12.4805 15.5176-12.8711 14.9414-12.8711C14.375-12.8711 14.0527-12.4609 14.0527-11.8652L14.0527-7.93945L10.1465-7.93945C9.53125-7.93945 9.13086-7.59766 9.13086-7.02148C9.13086-6.46484 9.55078-6.13281 10.1465-6.13281L14.0527-6.13281L14.0527-2.38281C14.0527-1.79688 14.375-1.38672 14.9414-1.38672Z"/>
  </g>
  <text style="stroke:none;fill:black;font-family:-apple-system,&quot;SF Pro Display&quot;,&quot;SF Pro Text&quot;,Helvetica,sans-serif;font-weight:bold;" transform="matrix(1 0 0 1 263 1953)">Design Variations</text>
  <text style="stroke:none;fill:black;font-family:-apple-system,&quot;SF Pro Display&quot;,&quot;SF Pro Text&quot;,Helvetica,sans-serif;" transform="matrix(1 0 0 1 263 1971)">Symbols are supported in up to nine weights and three scales.</text>
  <text style="stroke:none;fill:black;font-family:-apple-system,&quot;SF Pro Display&quot;,&quot;SF Pro Text&quot;,Helvetica,sans-serif;" transform="matrix(1 0 0 1 263 1989)">For optimal layout with text and other symbols, vertically align</text>
  <text style="stroke:none;fill:black;font-family:-apple-system,&quot;SF Pro Display&quot;,&quot;SF Pro Text&quot;,Helvetica,sans-serif;" transform="matrix(1 0 0 1 263 2007)">symbols with the adjacent text.</text>
  <line id="" style="fill:none;stroke:#00AEEF;stroke-width:0.5;opacity:1.0;" x1="776" x2="776" y1="1919" y2="1933"/>
  <g id="" transform="matrix(1 0 0 1 776 1933)">
   <path d="M3.31055 0.126953C3.82812 0.126953 4.08203-0.0683594 4.26758-0.605469L5.52734-4.0625L11.2891-4.0625L12.5488-0.605469C12.7344-0.0683594 12.9883 0.126953 13.4961 0.126953C14.0137 0.126953 14.3457-0.185547 14.3457-0.673828C14.3457-0.839844 14.3164-0.986328 14.2383-1.20117L9.6582-13.3887C9.43359-13.9941 9.0332-14.2871 8.4082-14.2871C7.80273-14.2871 7.39258-13.9941 7.17773-13.3984L2.59766-1.19141C2.51953-0.976562 2.49023-0.830078 2.49023-0.664062C2.49023-0.175781 2.80273 0.126953 3.31055 0.126953ZM6.00586-5.53711L8.37891-12.1094L8.42773-12.1094L10.8008-5.53711Z"/>
  </g>
  <line id="" style="fill:none;stroke:#00AEEF;stroke-width:0.5;opacity:1.0;" x1="792.836" x2="792.836" y1="1919" y2="1933"/>
  <text style="stroke:none;fill:black;font-family:-apple-system,&quot;SF Pro Display&quot;,&quot;SF Pro Text&quot;,Helvetica,sans-serif;font-weight:bold;" transform="matrix(1 0 0 1 776 1953)">Margins</text>
  <text style="stroke:none;fill:black;font-family:-apple-system,&quot;SF Pro Display&quot;,&quot;SF Pro Text&quot;,Helvetica,sans-serif;" transform="matrix(1 0 0 1 776 1971)">Leading and trailing margins on the left and right side of each symbol</text>
  <text style="stroke:none;fill:black;font-family:-apple-system,&quot;SF Pro Display&quot;,&quot;SF Pro Text&quot;,Helvetica,sans-serif;" transform="matrix(1 0 0 1 776 1989)">can be adjusted by modifying the x-location of the margin guidelines.</text>
  <text style="stroke:none;fill:black;font-family:-apple-system,&quot;SF Pro Display&quot;,&quot;SF Pro Text&quot;,Helvetica,sans-serif;" transform="matrix(1 0 0 1 776 2007)">Modifications are automatically applied proportionally to all</text>
  <text style="stroke:none;fill:black;font-family:-apple-system,&quot;SF Pro Display&quot;,&quot;SF Pro Text&quot;,Helvetica,sans-serif;" transform="matrix(1 0 0 1 776 2025)">scales and weights.</text>
  <g id="" transform="matrix(1 0 0 1 1289 1933)">
   <path d="M2.8418 1.86523L4.54102 3.57422C5.40039 4.44336 6.38672 4.38477 7.31445 3.35938L17.4902-7.85156C17.7539-7.76367 18.0273-7.7832 18.3398-7.8418L19.4043-8.03711L20.0684-7.36328L20.0293-6.80664C19.9902-6.30859 20.1172-5.92773 20.6055-5.44922L21.3672-4.70703C21.8457-4.22852 22.4609-4.19922 22.9297-4.66797L25.8398-7.58789C26.3086-8.05664 26.2891-8.65234 25.8105-9.13086L25.0391-9.89258C24.5605-10.3711 24.1895-10.5273 23.7109-10.4883L23.1348-10.4395L22.4902-11.0742L22.7344-12.1973C22.8613-12.7637 22.7051-13.2031 22.1191-13.7891L19.9219-15.9766C16.582-19.2969 12.1484-19.2188 9.25781-16.3281C8.83789-15.918 8.80859-15.3418 9.04297-14.9512C9.27734-14.5898 9.73633-14.3555 10.3809-14.5215C11.8457-14.8633 13.3691-14.9219 14.7949-13.9844L14.209-12.5293C14.0137-12.0508 13.9844-11.6504 14.1113-11.2891L3.04688-0.898438C2.06055 0.0195312 1.98242 0.996094 2.8418 1.86523ZM10.752-15.957C13.1836-17.7344 16.4746-17.4316 18.7012-15.2051L21.1328-12.793C21.3672-12.5586 21.4062-12.373 21.3379-12.0312L21.0156-10.5469L22.5195-9.0625L23.5059-9.12109C23.7598-9.13086 23.8379-9.11133 24.0332-8.91602L24.6094-8.33984L22.168-5.89844L21.5918-6.47461C21.3965-6.66992 21.3672-6.74805 21.377-7.01172L21.4453-7.98828L19.9512-9.47266L18.4277-9.21875C18.1055-9.15039 17.959-9.17969 17.7148-9.41406L15.7129-11.416C15.459-11.6504 15.4297-11.8164 15.5859-12.1875L16.4648-14.2773C14.9023-15.7324 12.8711-16.3574 10.8398-15.7617C10.6836-15.7227 10.625-15.8496 10.752-15.957ZM5.27344 2.30469L4.10156 1.14258C3.63281 0.683594 3.74023 0.341797 4.14062-0.0195312L14.9512-10.1953L16.416-8.71094L6.42578 2.27539C6.07422 2.67578 5.74219 2.77344 5.27344 2.30469Z"/>
  </g>
  <text style="stroke:none;fill:black;font-family:-apple-system,&quot;SF Pro Display&quot;,&quot;SF Pro Text&quot;,Helvetica,sans-serif;font-weight:bold;" transform="matrix(1 0 0 1 1289 1953)">Exporting</text>
  <text style="stroke:none;fill:black;font-family:-apple-system,&quot;SF Pro Display&quot;,&quot;SF Pro Text&quot;,Helvetica,sans-serif;" transform="matrix(1 0 0 1 1289 1971)">Symbols should be outlined when exporting to ensure the</text>
  <text style="stroke:none;fill:black;font-family:-apple-system,&quot;SF Pro Display&quot;,&quot;SF Pro Text&quot;,Helvetica,sans-serif;" transform="matrix(1 0 0 1 1289 1989)">design is preserved when submitting to Xcode.</text>
  <text id="template-version" style="stroke:none;fill:black;font-family:-apple-system,&quot;SF Pro Display&quot;,&quot;SF Pro Text&quot;,Helvetica,sans-serif;text-anchor:end;" transform="matrix(1 0 0 1 3036 1933)">Template v.2.0</text>
  <text style="stroke:none;fill:black;font-family:-apple-system,&quot;SF Pro Display&quot;,&quot;SF Pro Text&quot;,Helvetica,sans-serif;text-anchor:end;" transform="matrix(1 0 0 1 3036 1951)">Requires Xcode 12 or greater</text>
  <text style="stroke:none;fill:black;font-family:-apple-system,&quot;SF Pro Display&quot;,&quot;SF Pro Text&quot;,Helvetica,sans-serif;text-anchor:end;" transform="matrix(1 0 0 1 3036 1969)">Generated from magnifyingglass.circle</text>
  <text style="stroke:none;fill:black;font-family:-apple-system,&quot;SF Pro Display&quot;,&quot;SF Pro Text&quot;,Helvetica,sans-serif;text-anchor:end;" transform="matrix(1 0 0 1 3036 1987)">Typeset at 100 points</text>
  <text style="stroke:none;fill:black;font-family:-apple-system,&quot;SF Pro Display&quot;,&quot;SF Pro Text&quot;,Helvetica,sans-serif;" transform="matrix(1 0 0 1 263 726)">Small</text>
  <text style="stroke:none;fill:black;font-family:-apple-system,&quot;SF Pro Display&quot;,&quot;SF Pro Text&quot;,Helvetica,sans-serif;" transform="matrix(1 0 0 1 263 1156)">Medium</text>
  <text style="stroke:none;fill:black;font-family:-apple-system,&quot;SF Pro Display&quot;,&quot;SF Pro Text&quot;,Helvetica,sans-serif;" transform="matrix(1 0 0 1 263 1586)">Large</text>
 </g>
 <g id="Guides">
  <g id="H-reference" style="fill:#27AAE1;stroke:none;" transform="matrix(1 0 0 1 339 696)">
   <path d="M0.976562 0L3.66211 0L12.9883-24.4629L45.752-24.4629L55.127 0L57.7637 0L30.6152-70.459L28.125-70.459ZM29.3457-67.1387L29.4434-67.1387L44.873-26.709L13.8672-26.709Z"/>
  </g>
  <line id="Baseline-S" style="fill:none;stroke:#27AAE1;opacity:1;stroke-width:0.5;" x1="263" x2="3036" y1="696" y2="696"/>
  <line id="Capline-S" style="fill:none;stroke:#27AAE1;opacity:1;stroke-width:0.5;" x1="263" x2="3036" y1="625.541" y2="625.541"/>
  <g id="H-reference" style="fill:#27AAE1;stroke:none;" transform="matrix(1 0 0 1 339 1126)">
   <path d="M0.976562 0L3.66211 0L12.9883-24.4629L45.752-24.4629L55.127 0L57.7637 0L30.6152-70.459L28.125-70.459ZM29.3457-67.1387L29.4434-67.1387L44.873-26.709L13.8672-26.709Z"/>
  </g>
  <line id="Baseline-M" style="fill:none;stroke:#27AAE1;opacity:1;stroke-width:0.5;" x1="263" x2="3036" y1="1126" y2="1126"/>
  <line id="Capline-M" style="fill:none;stroke:#27AAE1;opacity:1;stroke-width:0.5;" x1="263" x2="3036" y1="1055.54" y2="1055.54"/>
  <g id="H-reference" style="fill:#27AAE1;stroke:none;" transform="matrix(1 0 0 1 339 1556)">
   <path d="M0.976562 0L3.66211 0L12.9883-24.4629L45.752-24.4629L55.127 0L57.7637 0L30.6152-70.459L28.125-70.459ZM29.3457-67.1387L29.4434-67.1387L44.873-26.709L13.8672-26.709Z"/>
  </g>
  <line id="Baseline-L" style="fill:none;stroke:#27AAE1;opacity:1;stroke-width:0.5;" x1="263" x2="3036" y1="1556" y2="1556"/>
  <line id="Capline-L" style="fill:none;stroke:#27AAE1;opacity:1;stroke-width:0.5;" x1="263" x2="3036" y1="1485.54" y2="1485.54"/>
  <line id="left-margin" style="fill:none;stroke:#00AEEF;stroke-width:0.5;opacity:1.0;" x1="1391.3" x2="1391.3" y1="1030.79" y2="1150.12"/>
  <line id="right-margin" style="fill:none;stroke:#00AEEF;stroke-width:0.5;opacity:1.0;" x1="1508.39" x2="1508.39" y1="1030.79" y2="1150.12"/>
 </g>
 <g id="Symbols">
  <g id="Black-L" transform="matrix(1 0 0 1 2854.05 1556)">
   <path d="M79.3457 32.8613C116.748 32.8613 147.412 2.19727 147.412-35.2051C147.412-72.6074 116.748-103.271 79.2969-103.271C41.8945-103.271 11.2793-72.6074 11.2793-35.2051C11.2793 2.19727 41.9434 32.8613 79.3457 32.8613ZM79.3457 12.4023C52.9785 12.4023 31.7383-8.83789 31.7383-35.2051C31.7383-61.5723 52.9297-82.8125 79.2969-82.8125C105.664-82.8125 126.953-61.5723 126.953-35.2051C127.002-8.83789 105.713 12.4023 79.3457 12.4023ZM73.6816-14.6973C77.7832-14.6973 81.6895-15.6738 85.1562-17.3828L97.1191-5.51758C98.7793-3.85742 100.83-3.07617 103.125-3.07617C107.666-3.07617 111.182-6.54297 111.182-11.2793C111.182-13.3301 110.449-15.332 108.789-16.9922L96.9727-28.8086C98.877-32.4707 100-36.6211 100-41.0156C100-55.4199 88.1348-67.334 73.6816-67.334C59.3262-67.334 47.3633-55.4199 47.3633-41.0156C47.3633-26.5625 59.3262-14.6973 73.6816-14.6973ZM73.6816-26.8066C65.918-26.8066 59.4727-33.1055 59.4727-41.0156C59.4727-48.8281 65.918-55.1758 73.6816-55.1758C81.543-55.1758 87.8906-48.877 87.8906-41.0156C87.8906-33.1055 81.543-26.8066 73.6816-26.8066Z"/>
  </g>
  <g id="Heavy-L" transform="matrix(1 0 0 1 2558.39 1556)">
   <path d="M78.2715 31.7871C115.088 31.7871 145.312 1.5625 145.312-35.2051C145.312-72.0215 115.039-102.246 78.2715-102.246C41.4551-102.246 11.2793-72.0215 11.2793-35.2051C11.2793 1.5625 41.5039 31.7871 78.2715 31.7871ZM78.2715 14.0137C51.0254 14.0137 29.0527-7.95898 29.0527-35.2051C29.0527-62.5 50.9766-84.4727 78.2715-84.4727C105.518-84.4727 127.49-62.5 127.539-35.2051C127.539-7.95898 105.566 14.0137 78.2715 14.0137ZM72.3145-15.1855C76.709-15.1855 80.8594-16.2598 84.5215-18.2129L97.5586-5.17578C99.1211-3.61328 100.977-2.88086 103.125-2.88086C107.227-2.88086 110.303-6.00586 110.303-10.2539C110.303-12.1582 109.619-13.9648 108.105-15.4297L95.1172-28.4668C97.3145-32.2754 98.5352-36.7188 98.5352-41.3574C98.5352-55.7617 86.7188-67.627 72.3145-67.627C57.959-67.627 46.0938-55.7129 46.0938-41.3574C46.0938-27.002 57.959-15.1855 72.3145-15.1855ZM72.3145-26.1719C63.9648-26.1719 57.0801-32.959 57.0801-41.4062C57.0801-49.7559 63.9648-56.543 72.3145-56.543C80.7129-56.543 87.5-49.7559 87.5-41.4062C87.5-32.959 80.7129-26.1719 72.3145-26.1719Z"/>
  </g>
  <g id="Bold-L" transform="matrix(1 0 0 1 2262.88 1556)">
   <path d="M77.0996 30.5664C113.232 30.5664 142.92 0.878906 142.92-35.2539C142.92-71.3379 113.184-101.074 77.0508-101.074C40.9668-101.074 11.2793-71.3379 11.2793-35.2539C11.2793 0.878906 41.0156 30.5664 77.0996 30.5664ZM77.0996 15.8203C48.8281 15.8203 26.0742-6.98242 26.0742-35.2539C26.0742-63.5254 48.7793-86.2793 77.0508-86.2793C105.371-86.2793 128.125-63.5254 128.174-35.2539C128.174-6.98242 105.371 15.8203 77.0996 15.8203ZM70.752-15.6738C75.4883-15.6738 79.9316-16.9434 83.7402-19.1406L98.0957-4.78516C99.5117-3.36914 101.123-2.68555 103.076-2.68555C106.689-2.68555 109.375-5.41992 109.375-9.13086C109.375-10.8398 108.691-12.4023 107.373-13.7207L93.0176-28.125C95.5078-32.1289 96.9238-36.7676 96.9238-41.7969C96.9238-56.1035 85.1562-67.9199 70.752-67.9199C56.4453-67.9199 44.6289-56.1035 44.6289-41.7969C44.6289-27.4414 56.4453-15.6738 70.752-15.6738ZM70.8008-25.4395C61.8164-25.4395 54.3945-32.7637 54.3945-41.7969C54.3945-50.7812 61.8164-58.1055 70.8008-58.1055C79.7852-58.1055 87.1094-50.7812 87.1094-41.7969C87.1094-32.7637 79.7852-25.4395 70.8008-25.4395Z"/>
  </g>
  <g id="Semibold-L" transform="matrix(1 0 0 1 1966.97 1556)">
   <path d="M76.2695 29.7363C111.914 29.7363 141.309 0.390625 141.309-35.2539C141.309-70.8984 111.865-100.244 76.2695-100.244C40.625-100.244 11.2793-70.8984 11.2793-35.2539C11.2793 0.390625 40.6738 29.7363 76.2695 29.7363ZM76.2695 17.041C47.3145 17.041 24.0234-6.25 24.0234-35.2539C24.0234-64.209 47.2656-87.5488 76.2695-87.5488C105.225-87.5488 128.564-64.209 128.613-35.2539C128.662-6.25 105.273 17.041 76.2695 17.041ZM69.7266-16.0156C74.6582-16.0156 79.248-17.3828 83.2031-19.7754L98.4375-4.54102C99.7559-3.17383 101.221-2.53906 103.076-2.53906C106.348-2.53906 108.691-5.0293 108.691-8.34961C108.691-9.91211 108.057-11.377 106.885-12.5L91.6016-27.8809C94.2383-31.9824 95.752-36.8164 95.752-42.041C95.752-56.3965 84.082-68.1152 69.7266-68.1152C55.4199-68.1152 43.6523-56.3477 43.6523-42.041C43.6523-27.7344 55.4199-16.0156 69.7266-16.0156ZM69.7266-24.9023C60.3516-24.9023 52.5391-32.6172 52.5391-42.0898C52.5391-51.4648 60.3516-59.1797 69.7266-59.1797C79.1504-59.1797 86.8652-51.5137 86.8652-42.0898C86.8652-32.6172 79.1504-24.9023 69.7266-24.9023Z"/>
  </g>
  <g id="Medium-L" transform="matrix(1 0 0 1 1670.87 1556)">
   <path d="M75.6836 29.1504C110.938 29.1504 140.088 0 140.088-35.2539C140.088-70.5078 110.889-99.6582 75.6348-99.6582C40.3809-99.6582 11.2793-70.5078 11.2793-35.2539C11.2793 0 40.3809 29.1504 75.6836 29.1504ZM75.6836 18.0176C46.1426 18.0176 22.4609-5.76172 22.4609-35.2539C22.4609-64.7461 46.1426-88.5254 75.6348-88.5254C105.127-88.5254 128.906-64.7461 128.906-35.2539C128.955-5.76172 105.176 18.0176 75.6836 18.0176ZM68.8965-16.2598C73.9746-16.2598 78.7598-17.7246 82.7637-20.2637L98.7305-4.3457C99.9512-3.02734 101.318-2.44141 103.076-2.44141C106.104-2.44141 108.203-4.6875 108.203-7.76367C108.203-9.22852 107.568-10.5469 106.494-11.6211L90.4785-27.7344C93.2617-31.8848 94.9219-36.8652 94.9219-42.2363C94.9219-56.543 83.252-68.3105 68.8965-68.3105C54.6387-68.3105 42.8711-56.543 42.8711-42.2363C42.8711-27.9785 54.6387-16.2598 68.8965-16.2598ZM68.9453-24.5117C59.2285-24.5117 51.1719-32.5195 51.1719-42.2852C51.1719-52.002 59.2285-60.0098 68.9453-60.0098C78.7109-60.0098 86.6211-52.0508 86.6211-42.2852C86.6211-32.5195 78.7109-24.5117 68.9453-24.5117Z"/>
  </g>
  <g id="Regular-L" transform="matrix(1 0 0 1 1374.97 1556)">
   <path d="M74.8535 28.3203C109.668 28.3203 138.477-0.488281 138.477-35.2539C138.477-70.0684 109.619-98.877 74.8047-98.877C40.0391-98.877 11.2793-70.0684 11.2793-35.2539C11.2793-0.488281 40.0879 28.3203 74.8535 28.3203ZM74.8535 19.2383C44.6777 19.2383 20.4102-5.07812 20.4102-35.2539C20.4102-65.4785 44.6289-89.7461 74.8047-89.7461C105.029-89.7461 129.297-65.4785 129.346-35.2539C129.395-5.07812 105.078 19.2383 74.8535 19.2383ZM67.8711-16.6016C73.1445-16.6016 78.0762-18.2129 82.2266-20.9473L99.0723-4.05273C100.195-2.83203 101.416-2.34375 103.027-2.34375C105.713-2.34375 107.568-4.29688 107.568-7.03125C107.568-8.34961 106.934-9.47266 106.006-10.4492L89.0137-27.5391C92.041-31.7383 93.7988-36.9141 93.7988-42.5293C93.7988-56.8359 82.1777-68.5059 67.8711-68.5059C53.6133-68.5059 41.8945-56.7871 41.8945-42.5293C41.8945-28.2715 53.6133-16.6016 67.8711-16.6016ZM67.8711-24.0234C57.7148-24.0234 49.3164-32.373 49.3164-42.5293C49.3164-52.6855 57.7148-61.084 67.8711-61.084C78.0762-61.084 86.377-52.7344 86.377-42.5293C86.377-32.373 78.0762-24.0234 67.8711-24.0234Z"/>
  </g>
  <g id="Light-L" transform="matrix(1 0 0 1 1079.18 1556)">
   <path d="M73.9258 27.3926C108.301 27.3926 136.621-0.927734 136.621-35.2539C136.621-69.6289 108.252-97.9492 73.9258-97.9492C39.5508-97.9492 11.2793-69.6289 11.2793-35.2539C11.2793-0.927734 39.5996 27.3926 73.9258 27.3926ZM73.9258 20.5078C43.1152 20.5078 18.2129-4.44336 18.2129-35.2539C18.2129-66.1133 43.0664-91.0156 73.9258-91.0156C104.736-91.0156 129.688-66.1133 129.736-35.2539C129.736-4.44336 104.785 20.5078 73.9258 20.5078ZM66.7969-17.041C72.3145-17.041 77.4902-18.7988 81.6895-21.8262L99.6094-3.80859C100.537-2.7832 101.514-2.34375 102.881-2.34375C105.078-2.34375 106.543-3.90625 106.543-6.10352C106.543-7.27539 105.957-8.10547 105.176-8.93555L87.1582-27.0996C90.4297-31.3965 92.3828-36.7676 92.3828-42.5781C92.3828-56.6895 80.8594-68.2129 66.7969-68.2129C52.7344-68.2129 41.2109-56.6406 41.2109-42.5781C41.2109-28.5156 52.7344-17.041 66.7969-17.041ZM66.8457-22.8516C56.0059-22.8516 47.0215-31.7871 47.0215-42.627C47.0215-53.4668 56.0059-62.4023 66.8457-62.4023C77.7344-62.4023 86.5723-53.5156 86.5723-42.627C86.5723-31.7871 77.7344-22.8516 66.8457-22.8516Z"/>
  </g>
  <g id="Thin-L" transform="matrix(1 0 0 1 783.693 1556)">
   <path d="M72.7051 26.1719C106.494 26.1719 134.18-1.51367 134.18-35.2539C134.18-69.043 106.494-96.7285 72.7051-96.7285C38.9648-96.7285 11.2793-69.043 11.2793-35.2539C11.2793-1.51367 38.9648 26.1719 72.7051 26.1719ZM72.7051 22.168C41.0156 22.168 15.2832-3.56445 15.2832-35.2539C15.2832-66.9922 41.0156-92.7246 72.7051-92.7246C104.395-92.7246 130.176-66.9922 130.176-35.2539C130.176-3.56445 104.443 22.168 72.7051 22.168ZM65.3809-17.5781C71.2402-17.5781 76.6602-19.6289 80.9082-22.998L100.293-3.51562C100.977-2.73438 101.611-2.39258 102.637-2.39258C104.248-2.39258 105.176-3.4668 105.176-4.88281C105.176-5.81055 104.736-6.29883 104.102-6.98242L84.668-26.6113C88.2812-30.957 90.5273-36.5723 90.5273-42.627C90.5273-56.4941 79.1992-67.8711 65.3809-67.8711C51.5625-67.8711 40.2344-56.4453 40.2344-42.627C40.2344-28.8086 51.5625-17.5781 65.3809-17.5781ZM65.4297-21.3379C53.7109-21.3379 43.9941-30.957 43.9941-42.7246C43.9941-54.541 53.7109-64.1602 65.4297-64.1602C77.2461-64.1602 86.8164-54.541 86.8164-42.7246C86.8164-30.957 77.2461-21.3379 65.4297-21.3379Z"/>
  </g>
  <g id="Ultralight-L" transform="matrix(1 0 0 1 487.616 1556)">
   <path d="M72.1191 25.5371C105.566 25.5371 132.91-1.80664 132.91-35.2539C132.91-68.75 105.566-96.0938 72.1191-96.0938C38.623-96.0938 11.2793-68.75 11.2793-35.2539C11.2793-1.80664 38.623 25.5371 72.1191 25.5371ZM72.1191 23.0469C39.9414 23.0469 13.7695-3.125 13.7695-35.2539C13.7695-67.4316 39.9414-93.6035 72.1191-93.6035C104.248-93.6035 130.42-67.4316 130.42-35.2539C130.42-3.125 104.248 23.0469 72.1191 23.0469ZM64.6484-17.8711C70.6543-17.8711 76.2207-20.0195 80.5176-23.6328L100.635-3.36914C101.221-2.68555 101.709-2.39258 102.49-2.39258C103.809-2.39258 104.443-3.22266 104.443-4.24805C104.443-5.07812 104.102-5.37109 103.564-6.00586L83.3496-26.3672C87.207-30.7129 89.5508-36.4258 89.5508-42.6758C89.5508-56.3477 78.3203-67.6758 64.6484-67.6758C50.9277-67.6758 39.7461-56.3965 39.7461-42.6758C39.7461-29.0039 50.9277-17.8711 64.6484-17.8711ZM64.7461-20.5566C52.5391-20.5566 42.4316-30.5664 42.4316-42.7734C42.4316-55.0781 52.5391-65.0391 64.7461-65.0391C77.002-65.0391 86.9141-55.0781 86.9141-42.7734C86.9141-30.5664 77.002-20.5566 64.7461-20.5566Z"/>
  </g>
  <g id="Black-M" transform="matrix(1 0 0 1 2870.97 1126)">
   <path d="M62.4023 18.457C91.9922 18.457 116.113-5.61523 116.113-35.2051C116.113-64.7949 91.9922-88.8672 62.4023-88.8672C32.8125-88.8672 8.74023-64.7949 8.74023-35.2051C8.74023-5.61523 32.8125 18.457 62.4023 18.457ZM62.4023 0.195312C42.8711 0.195312 27.002-15.625 27.002-35.2051C27.002-54.7363 42.8711-70.6055 62.4023-70.6055C81.9824-70.6055 97.8027-54.7363 97.8027-35.2051C97.8027-15.625 81.9824 0.195312 62.4023 0.195312ZM58.3984-18.9453C61.3281-18.9453 64.1113-19.5801 66.6504-20.752L74.9023-12.5488C76.2695-11.2305 78.0273-10.5469 79.834-10.5469C83.7402-10.5469 86.7676-13.5742 86.7676-17.5293C86.7676-19.2871 86.1816-20.9473 84.7656-22.4121L76.6602-30.4688C77.9785-33.1543 78.7109-36.1328 78.7109-39.2578C78.7109-50.3418 69.5312-59.5703 58.3984-59.5703C47.3145-59.5703 38.0859-50.3418 38.0859-39.2578C38.0859-28.125 47.3145-18.9453 58.3984-18.9453ZM58.3984-29.0039C52.7344-29.0039 48.0957-33.4961 48.0957-39.2578C48.0957-44.9707 52.7344-49.5117 58.3984-49.5117C64.1113-49.5117 68.7012-44.9707 68.7012-39.2578C68.7012-33.4961 64.1113-29.0039 58.3984-29.0039Z"/>
  </g>
  <g id="Heavy-M" transform="matrix(1 0 0 1 2575.19 1126)">
   <path d="M61.5234 17.5293C90.5273 17.5293 114.258-6.20117 114.258-35.2051C114.258-64.2578 90.5273-87.9883 61.4746-87.9883C32.4707-87.9883 8.74023-64.2578 8.74023-35.2051C8.74023-6.20117 32.4707 17.5293 61.5234 17.5293ZM61.5234 1.61133C41.1133 1.61133 24.6582-14.8438 24.6582-35.2051C24.6582-55.6152 41.1133-72.0703 61.4746-72.0703C81.8848-72.0703 98.3398-55.6152 98.3398-35.2051C98.3398-14.8438 81.8848 1.61133 61.5234 1.61133ZM57.1777-19.3359C60.3516-19.3359 63.3789-20.0684 66.0645-21.3867L75.293-12.207C76.5625-10.9863 78.1738-10.3516 79.8828-10.3516C83.3984-10.3516 86.084-13.0371 86.084-16.6504C86.084-18.2617 85.5469-19.8242 84.2285-21.0938L75.1465-30.2246C76.6113-33.0566 77.4902-36.2305 77.4902-39.6484C77.4902-50.7812 68.3105-59.9609 57.1777-59.9609C46.0449-59.9609 36.8652-50.7324 36.8652-39.6484C36.8652-28.5156 46.0449-19.3359 57.1777-19.3359ZM57.1777-28.5645C51.123-28.5645 46.0938-33.4961 46.0938-39.6484C46.0938-45.752 51.123-50.6836 57.1777-50.6836C63.2812-50.6836 68.2617-45.752 68.2617-39.6484C68.2617-33.4961 63.2812-28.5645 57.1777-28.5645Z"/>
  </g>
  <g id="Bold-M" transform="matrix(1 0 0 1 2279.5 1126)">
   <path d="M60.498 16.5039C88.8672 16.5039 112.207-6.83594 112.207-35.2051C112.207-63.623 88.8672-86.9629 60.4492-86.9629C32.0312-86.9629 8.74023-63.623 8.74023-35.2051C8.74023-6.83594 32.0801 16.5039 60.498 16.5039ZM60.498 3.22266C39.1602 3.22266 22.0703-13.916 22.0703-35.2051C22.0703-56.543 39.1602-73.6816 60.4492-73.6816C81.7383-73.6816 98.9258-56.543 98.9258-35.2051C98.9746-13.916 81.7871 3.22266 60.498 3.22266ZM55.8105-19.7754C59.2773-19.7754 62.5-20.6543 65.3809-22.168L75.6836-11.8652C76.9043-10.6934 78.2715-10.1074 79.9316-10.1074C83.0078-10.1074 85.3516-12.5 85.3516-15.7227C85.3516-17.1387 84.8145-18.5059 83.6914-19.6289L73.3887-29.9316C75.1465-32.9102 76.123-36.377 76.123-40.0391C76.123-51.2207 66.9922-60.4004 55.8105-60.4004C44.6777-60.4004 35.498-51.1719 35.498-40.0391C35.498-28.9062 44.6777-19.7754 55.8105-19.7754ZM55.8105-28.0762C49.2676-28.0762 43.7988-33.4473 43.7988-40.0879C43.7988-46.6309 49.2676-52.002 55.8105-52.002C62.4023-52.002 67.7734-46.6797 67.7734-40.0879C67.7734-33.4473 62.4023-28.0762 55.8105-28.0762Z"/>
  </g>
  <g id="Semibold-M" transform="matrix(1 0 0 1 1983.5 1126)">
   <path d="M59.7656 15.8203C87.7441 15.8203 110.791-7.27539 110.791-35.2539C110.791-63.2324 87.6953-86.2793 59.7656-86.2793C31.7871-86.2793 8.74023-63.2324 8.74023-35.2539C8.74023-7.27539 31.7871 15.8203 59.7656 15.8203ZM59.7656 4.3457C37.8418 4.3457 20.2637-13.3301 20.2637-35.2539C20.2637-57.1777 37.793-74.8047 59.7656-74.8047C81.6895-74.8047 99.3164-57.1777 99.3652-35.2539C99.3652-13.3301 81.6895 4.3457 59.7656 4.3457ZM54.834-20.0684C58.4961-20.0684 61.9141-20.9961 64.8926-22.7051L75.9766-11.6211C77.0996-10.498 78.3691-9.96094 79.9316-9.96094C82.7637-9.96094 84.8633-12.1094 84.8633-15.0391C84.8633-16.3574 84.2773-17.627 83.3008-18.6035L72.168-29.7852C74.0723-32.8613 75.1465-36.4746 75.1465-40.332C75.1465-51.5137 66.0156-60.6445 54.834-60.6445C43.75-60.6445 34.5215-51.4648 34.5215-40.332C34.5215-29.1992 43.75-20.0684 54.834-20.0684ZM54.8828-27.7832C47.9492-27.7832 42.2852-33.3984 42.2852-40.3809C42.2852-47.2656 47.9492-52.9297 54.8828-52.9297C61.7676-52.9297 67.4316-47.2656 67.4316-40.3809C67.4316-33.3984 61.7676-27.7832 54.8828-27.7832Z"/>
  </g>
  <g id="Medium-M" transform="matrix(1 0 0 1 1687.3 1126)">
   <path d="M59.2285 15.2344C86.9141 15.2344 109.766-7.61719 109.766-35.2539C109.766-62.8906 86.8652-85.7422 59.1797-85.7422C31.543-85.7422 8.74023-62.8906 8.74023-35.2539C8.74023-7.61719 31.5918 15.2344 59.2285 15.2344ZM59.2285 5.17578C36.8164 5.17578 18.8965-12.8418 18.8965-35.2539C18.8965-57.666 36.8164-75.6348 59.1797-75.6348C81.5918-75.6348 99.6094-57.666 99.6582-35.2539C99.707-12.8418 81.6406 5.17578 59.2285 5.17578ZM54.1504-20.2637C57.9102-20.2637 61.4746-21.2891 64.502-23.1445L76.2207-11.4746C77.2461-10.3516 78.4668-9.86328 79.9316-9.86328C82.5684-9.86328 84.4727-11.8164 84.4727-14.5508C84.4727-15.7715 83.8867-16.9434 83.0078-17.8711L71.2402-29.6387C73.291-32.8125 74.4629-36.5723 74.4629-40.5762C74.4629-51.7578 65.332-60.8887 54.1504-60.8887C43.0176-60.8887 33.8379-51.709 33.8379-40.5762C33.8379-29.3945 43.0176-20.2637 54.1504-20.2637ZM54.1504-27.5391C47.0215-27.5391 41.0645-33.3984 41.0645-40.5762C41.0645-47.7051 47.0215-53.6133 54.1504-53.6133C61.3281-53.6133 67.1875-47.7539 67.1875-40.5762C67.1875-33.3984 61.3281-27.5391 54.1504-27.5391Z"/>
  </g>
  <g id="Regular-M" transform="matrix(1 0 0 1 1391.3 1126)">
   <path d="M58.5449 14.5508C85.791 14.5508 108.35-8.05664 108.35-35.2539C108.35-62.5 85.7422-85.0586 58.4961-85.0586C31.2988-85.0586 8.74023-62.5 8.74023-35.2539C8.74023-8.05664 31.3477 14.5508 58.5449 14.5508ZM58.5449 6.25C35.498 6.25 17.0898-12.207 17.0898-35.2539C17.0898-58.3008 35.4492-76.7578 58.4961-76.7578C81.543-76.7578 100-58.3008 100.049-35.2539C100.098-12.207 81.5918 6.25 58.5449 6.25ZM53.2227-20.5566C57.1777-20.5566 60.8887-21.6797 64.0137-23.6816L76.5137-11.2305C77.4902-10.1562 78.5645-9.7168 79.9805-9.7168C82.3242-9.7168 83.9355-11.4258 83.9355-13.916C83.9355-15.0391 83.3984-16.0645 82.6172-16.8457L70.0195-29.4922C72.2168-32.7637 73.5352-36.6699 73.5352-40.8691C73.5352-52.0508 64.4043-61.1816 53.2227-61.1816C42.041-61.1816 32.9102-52.002 32.9102-40.8691C32.9102-29.6875 42.041-20.5566 53.2227-20.5566ZM53.2227-27.1973C45.752-27.1973 39.5508-33.3984 39.5508-40.8691C39.5508-48.291 45.752-54.4922 53.2227-54.4922C60.6934-54.4922 66.8457-48.3398 66.8457-40.8691C66.8457-33.3984 60.6934-27.1973 53.2227-27.1973Z"/>
  </g>
  <g id="Light-M" transform="matrix(1 0 0 1 1095.42 1126)">
   <path d="M57.7148 13.7207C84.5215 13.7207 106.689-8.44727 106.689-35.2539C106.689-62.1094 84.5215-84.2285 57.666-84.2285C30.8594-84.2285 8.74023-62.1094 8.74023-35.2539C8.74023-8.44727 30.9082 13.7207 57.7148 13.7207ZM57.7148 7.37305C34.082 7.37305 15.0879-11.6699 15.0879-35.2539C15.0879-58.8867 34.082-77.9297 57.666-77.9297C81.2988-77.9297 100.342-58.8867 100.391-35.2539C100.391-11.6699 81.3477 7.37305 57.7148 7.37305ZM52.2461-20.9473C56.4453-20.9473 60.3027-22.2168 63.5254-24.4141L76.9531-10.9863C77.7832-10.1074 78.6133-9.7168 79.7852-9.7168C81.7383-9.7168 83.0078-11.1328 83.0078-13.0859C83.0078-14.0625 82.5684-14.8438 81.8848-15.5273L68.3594-29.1016C70.8008-32.4219 72.2168-36.4746 72.2168-40.918C72.2168-51.9043 63.2324-60.9375 52.2461-60.9375C41.2598-60.9375 32.2266-51.8555 32.2266-40.918C32.2266-29.9316 41.2598-20.9473 52.2461-20.9473ZM52.2949-26.1719C44.1895-26.1719 37.5-32.8125 37.5-40.918C37.5-49.0234 44.1895-55.7129 52.2949-55.7129C60.4004-55.7129 66.9922-49.0723 66.9922-40.918C66.9922-32.8125 60.4004-26.1719 52.2949-26.1719Z"/>
  </g>
  <g id="Thin-M" transform="matrix(1 0 0 1 799.806 1126)">
   <path d="M56.6406 12.5977C82.9102 12.5977 104.492-8.98438 104.492-35.2539C104.492-61.5723 82.9102-83.1543 56.5918-83.1543C30.3223-83.1543 8.74023-61.5723 8.74023-35.2539C8.74023-8.98438 30.3223 12.5977 56.6406 12.5977ZM56.6406 8.88672C32.2266 8.88672 12.4512-10.8887 12.4512-35.2539C12.4512-59.6191 32.2266-79.4434 56.5918-79.4434C81.0059-79.4434 100.781-59.6191 100.781-35.2539C100.781-10.8887 81.0059 8.88672 56.6406 8.88672ZM50.9766-21.4355C55.4688-21.4355 59.5703-22.9492 62.8906-25.4883L77.5879-10.6934C78.1738-10.0586 78.7598-9.76562 79.5898-9.76562C80.957-9.76562 81.7871-10.6934 81.7871-11.9629C81.7871-12.7441 81.4453-13.2324 80.9082-13.7695L66.1621-28.6621C68.8965-32.0312 70.5566-36.2793 70.5566-40.9668C70.5566-51.7578 61.7676-60.5957 50.9766-60.5957C40.2344-60.5957 31.3965-51.709 31.3965-40.9668C31.3965-30.2246 40.2344-21.4355 50.9766-21.4355ZM51.0254-24.8047C42.1387-24.8047 34.7656-32.1289 34.7656-41.0156C34.7656-49.9512 42.1387-57.2754 51.0254-57.2754C59.9609-57.2754 67.2363-49.9512 67.2363-41.0156C67.2363-32.1289 59.9609-24.8047 51.0254-24.8047Z"/>
  </g>
  <g id="Ultralight-M" transform="matrix(1 0 0 1 503.656 1126)">
   <path d="M56.0547 12.0605C82.0801 12.0605 103.369-9.22852 103.369-35.2539C103.369-61.2793 82.0801-82.5684 56.0547-82.5684C30.0293-82.5684 8.74023-61.2793 8.74023-35.2539C8.74023-9.22852 30.0293 12.0605 56.0547 12.0605ZM56.0547 9.66797C31.2988 9.66797 11.1328-10.498 11.1328-35.2539C11.1328-60.0586 31.2988-80.1758 56.0547-80.1758C80.8594-80.1758 100.977-60.0586 100.977-35.2539C100.977-10.498 80.8594 9.66797 56.0547 9.66797ZM50.3418-21.6797C54.9316-21.6797 59.1797-23.3398 62.5488-26.0254L77.8809-10.5469C78.3691-10.0098 78.8086-9.76562 79.4922-9.76562C80.5664-9.76562 81.1523-10.498 81.1523-11.4258C81.1523-12.0605 80.8594-12.4023 80.4199-12.8906L64.9902-28.418C67.9199-31.7871 69.6777-36.1816 69.6777-41.0156C69.6777-51.6602 60.9863-60.4492 50.3418-60.4492C39.6973-60.4492 30.957-51.6602 30.957-41.0156C30.957-30.3711 39.6973-21.6797 50.3418-21.6797ZM50.3906-24.1211C41.0645-24.1211 33.3496-31.7383 33.3496-41.0645C33.3496-50.4395 41.0645-58.0566 50.3906-58.0566C59.7656-58.0566 67.334-50.4395 67.334-41.0645C67.334-31.7383 59.7656-24.1211 50.3906-24.1211Z"/>
  </g>
  <g id="Black-S" transform="matrix(1 0 0 1 2884.57 696)">
   <path d="M48.8281 6.78711C71.9727 6.78711 90.8203-12.0605 90.8203-35.2051C90.8203-58.3496 71.9727-77.1973 48.8281-77.1973C25.6836-77.1973 6.83594-58.3496 6.83594-35.2051C6.83594-12.0605 25.6836 6.78711 48.8281 6.78711ZM48.8281-7.37305C33.4473-7.37305 20.9961-19.8242 20.9961-35.2051C20.9961-50.5859 33.4473-63.0371 48.8281-63.0371C64.209-63.0371 76.6602-50.5859 76.6602-35.2051C76.6602-19.8242 64.209-7.37305 48.8281-7.37305ZM45.6543-22.5098C47.9492-22.5098 50.1953-22.998 52.1484-23.9258L58.6914-17.4316C59.7656-16.4062 61.1328-15.8691 62.5488-15.8691C65.5762-15.8691 67.9199-18.2129 67.9199-21.2891C67.9199-22.6562 67.4805-23.9746 66.3574-25.0977L59.9609-31.4941C60.9863-33.5938 61.5723-35.9375 61.5723-38.4277C61.5723-47.1191 54.3945-54.3457 45.6543-54.3457C36.9629-54.3457 29.7363-47.1191 29.7363-38.4277C29.7363-29.6875 36.9629-22.5098 45.6543-22.5098ZM45.6543-30.3223C41.2109-30.3223 37.5488-33.8867 37.5488-38.4277C37.5488-42.9199 41.2109-46.4844 45.6543-46.4844C50.1465-46.4844 53.7598-42.9199 53.7598-38.4277C53.7598-33.8867 50.1465-30.3223 45.6543-30.3223Z"/>
  </g>
  <g id="Heavy-S" transform="matrix(1 0 0 1 2588.47 696)">
   <path d="M48.2422 6.15234C70.9961 6.15234 89.5996-12.4512 89.5996-35.2051C89.5996-57.959 70.9961-76.6113 48.1934-76.6113C25.4395-76.6113 6.83594-57.959 6.83594-35.2051C6.83594-12.4512 25.4395 6.15234 48.2422 6.15234ZM48.2422-6.39648C32.2754-6.39648 19.4336-19.2871 19.4336-35.2051C19.4336-51.1719 32.2754-64.0137 48.1934-64.0137C64.1602-64.0137 77.002-51.1719 77.0508-35.2051C77.0508-19.2871 64.1602-6.39648 48.2422-6.39648ZM44.8242-22.7539C47.3145-22.7539 49.6582-23.3398 51.7578-24.3652L58.9355-17.2363C59.9609-16.2109 61.2305-15.7227 62.5977-15.7227C65.3809-15.7227 67.5293-17.8711 67.5293-20.752C67.5293-22.0215 67.0898-23.2422 66.0645-24.2188L58.9844-31.3477C60.1074-33.5449 60.791-36.0352 60.791-38.7207C60.791-47.4609 53.6133-54.6387 44.8242-54.6387C36.084-54.6387 28.8574-47.4121 28.8574-38.7207C28.8574-29.9316 36.084-22.7539 44.8242-22.7539ZM44.8242-30.127C40.1367-30.127 36.2305-33.9355 36.2305-38.7207C36.2305-43.457 40.1367-47.2656 44.8242-47.2656C49.5605-47.2656 53.418-43.457 53.418-38.7207C53.418-33.9355 49.5605-30.127 44.8242-30.127Z"/>
  </g>
  <g id="Bold-S" transform="matrix(1 0 0 1 2292.44 696)">
   <path d="M47.5586 5.46875C69.873 5.46875 88.2324-12.8906 88.2324-35.2539C88.2324-57.5684 69.873-75.9277 47.5098-75.9277C25.1953-75.9277 6.83594-57.5684 6.83594-35.2539C6.83594-12.8906 25.1953 5.46875 47.5586 5.46875ZM47.5586-5.32227C30.957-5.32227 17.6758-18.6523 17.6758-35.2539C17.6758-51.8066 30.957-65.1367 47.5098-65.1367C64.1113-65.1367 77.4414-51.8066 77.4414-35.2539C77.4414-18.6523 64.1113-5.32227 47.5586-5.32227ZM43.8965-23.0469C46.5332-23.0469 49.0723-23.6816 51.2695-24.8535L59.1797-16.9922C60.1562-16.0156 61.3281-15.5762 62.6465-15.5762C65.1855-15.5762 67.0898-17.4805 67.0898-20.1172C67.0898-21.2402 66.6016-22.4121 65.7227-23.291L57.8125-31.2012C59.1309-33.4961 59.8633-36.1816 59.8633-39.0137C59.8633-47.8027 52.6855-55.0293 43.8965-55.0293C35.1562-55.0293 27.8809-47.7539 27.8809-39.0137C27.8809-30.2246 35.1562-23.0469 43.8965-23.0469ZM43.8965-29.8828C38.916-29.8828 34.7656-33.9844 34.7656-39.0137C34.7656-44.043 38.916-48.0957 43.8965-48.0957C48.9258-48.0957 53.0273-44.043 53.0273-39.0137C53.0273-33.9844 48.9258-29.8828 43.8965-29.8828Z"/>
  </g>
  <g id="Semibold-S" transform="matrix(1 0 0 1 1996.2 696)">
   <path d="M47.0703 4.98047C69.0918 4.98047 87.3047-13.1836 87.3047-35.2539C87.3047-57.2754 69.0918-75.4883 47.0215-75.4883C25-75.4883 6.83594-57.2754 6.83594-35.2539C6.83594-13.1836 25.0488 4.98047 47.0703 4.98047ZM47.0703-4.58984C30.0781-4.58984 16.4551-18.2129 16.4551-35.2539C16.4551-52.2461 30.0293-65.8691 47.0215-65.8691C64.0625-65.8691 77.6855-52.2461 77.7344-35.2539C77.7344-18.2129 64.0625-4.58984 47.0703-4.58984ZM43.2617-23.1934C46.0449-23.1934 48.6816-23.9258 50.9766-25.1953L59.375-16.7969C60.3027-15.8691 61.377-15.4297 62.6465-15.4297C65.0391-15.4297 66.748-17.2363 66.748-19.6777C66.748-20.752 66.3086-21.8262 65.4785-22.6074L57.0312-31.1035C58.4473-33.4961 59.2773-36.2793 59.2773-39.209C59.2773-48.0469 52.0996-55.2734 43.2617-55.2734C34.4727-55.2734 27.2461-47.998 27.2461-39.209C27.2461-30.4199 34.4727-23.1934 43.2617-23.1934ZM43.2617-29.7363C38.0371-29.7363 33.7402-33.9844 33.7402-39.2578C33.7402-44.4336 38.0371-48.7305 43.2617-48.7305C48.4863-48.7305 52.7344-44.4824 52.7344-39.2578C52.7344-33.9844 48.4863-29.7363 43.2617-29.7363Z"/>
  </g>
  <g id="Medium-S" transform="matrix(1 0 0 1 1699.83 696)">
   <path d="M46.7285 4.63867C68.5547 4.63867 86.6211-13.4277 86.6211-35.2539C86.6211-57.0801 68.5059-75.1465 46.6797-75.1465C24.8535-75.1465 6.83594-57.0801 6.83594-35.2539C6.83594-13.4277 24.9023 4.63867 46.7285 4.63867ZM46.7285-4.00391C29.3945-4.00391 15.5273-17.9199 15.5273-35.2539C15.5273-52.5879 29.3457-66.4551 46.6797-66.4551C64.0137-66.4551 77.8809-52.5879 77.9297-35.2539C77.9785-17.9199 64.0625-4.00391 46.7285-4.00391ZM42.7734-23.3398C45.6543-23.3398 48.3398-24.1211 50.6836-25.4395L59.5215-16.6992C60.4004-15.7715 61.4258-15.332 62.6953-15.332C64.8926-15.332 66.5039-16.9922 66.5039-19.3359C66.5039-20.3613 66.0645-21.3867 65.2832-22.1191L56.4453-31.0059C57.959-33.4473 58.7891-36.3281 58.7891-39.4043C58.7891-48.2422 51.6113-55.4199 42.7734-55.4199C33.9844-55.4199 26.709-48.1934 26.709-39.4043C26.709-30.6152 33.9844-23.3398 42.7734-23.3398ZM42.7734-29.5898C37.4023-29.5898 32.959-34.0332 32.959-39.4043C32.959-44.7266 37.4023-49.1699 42.7734-49.1699C48.1445-49.1699 52.5391-44.7754 52.5391-39.4043C52.5391-34.0332 48.1445-29.5898 42.7734-29.5898Z"/>
  </g>
  <g id="Regular-S" transform="matrix(1 0 0 1 1403.58 696)">
   <path d="M46.2402 4.15039C67.7734 4.15039 85.6934-13.7207 85.6934-35.2539C85.6934-56.7871 67.7246-74.6582 46.1914-74.6582C24.707-74.6582 6.83594-56.7871 6.83594-35.2539C6.83594-13.7207 24.7559 4.15039 46.2402 4.15039ZM46.2402-3.27148C28.5156-3.27148 14.3555-17.4805 14.3555-35.2539C14.3555-53.0273 28.4668-67.2363 46.1914-67.2363C63.9648-67.2363 78.1738-53.0273 78.2227-35.2539C78.2715-17.4805 64.0137-3.27148 46.2402-3.27148ZM42.1387-23.5352C45.1172-23.5352 47.9492-24.3652 50.3418-25.8301L59.668-16.5039C60.5469-15.625 61.4746-15.2344 62.6953-15.2344C64.7461-15.2344 66.2109-16.748 66.2109-18.8965C66.2109-19.873 65.7227-20.8008 65.0879-21.4844L55.6641-30.957C57.2754-33.4473 58.2031-36.4258 58.2031-39.5996C58.2031-48.4863 50.9766-55.6641 42.1387-55.6641C33.3008-55.6641 26.0742-48.4375 26.0742-39.5996C26.0742-30.8105 33.3008-23.5352 42.1387-23.5352ZM42.1387-29.4434C36.5723-29.4434 31.9336-34.0332 31.9336-39.5996C31.9336-45.1172 36.5723-49.7559 42.1387-49.7559C47.7051-49.7559 52.2949-45.166 52.2949-39.5996C52.2949-34.0332 47.7051-29.4434 42.1387-29.4434Z"/>
  </g>
  <g id="Light-S" transform="matrix(1 0 0 1 1107.6 696)">
   <path d="M45.5078 3.41797C66.6992 3.41797 84.2285-14.0625 84.2285-35.2539C84.2285-56.4453 66.6504-73.9258 45.5078-73.9258C24.3164-73.9258 6.83594-56.4453 6.83594-35.2539C6.83594-14.0625 24.3652 3.41797 45.5078 3.41797ZM45.5078-2.29492C27.2461-2.29492 12.5977-16.9922 12.5977-35.2539C12.5977-53.5156 27.1973-68.2129 45.5078-68.2129C63.7695-68.2129 78.4668-53.5156 78.5156-35.2539C78.5156-16.9922 63.8184-2.29492 45.5078-2.29492ZM41.3086-23.877C44.4824-23.877 47.4609-24.8535 49.9512-26.4648L60.1074-16.3086C60.791-15.5762 61.5723-15.2344 62.5488-15.2344C64.2578-15.2344 65.3809-16.4551 65.3809-18.1641C65.3809-18.9941 64.9902-19.7266 64.4043-20.3125L54.1992-30.5664C56.0059-33.1543 57.0801-36.2793 57.0801-39.6484C57.0801-48.3398 50-55.4688 41.3086-55.4688C32.6172-55.4688 25.4883-48.3398 25.4883-39.6484C25.4883-31.0059 32.6172-23.877 41.3086-23.877ZM41.3086-28.5156C35.2051-28.5156 30.127-33.5449 30.127-39.6484C30.127-45.752 35.2051-50.7812 41.3086-50.7812C47.4121-50.7812 52.4414-45.8008 52.4414-39.6484C52.4414-33.5449 47.4121-28.5156 41.3086-28.5156Z"/>
  </g>
  <g id="Thin-S" transform="matrix(1 0 0 1 811.867 696)">
   <path d="M44.5801 2.49023C65.2832 2.49023 82.2754-14.5508 82.2754-35.2539C82.2754-55.957 65.2344-72.998 44.5312-72.998C23.8281-72.998 6.83594-55.957 6.83594-35.2539C6.83594-14.5508 23.877 2.49023 44.5801 2.49023ZM44.5801-0.927734C25.5859-0.927734 10.2539-16.3086 10.2539-35.2539C10.2539-54.1992 25.5859-69.5801 44.5312-69.5801C63.5254-69.5801 78.8574-54.1992 78.8574-35.2539C78.8574-16.3086 63.5254-0.927734 44.5801-0.927734ZM40.1855-24.3164C43.6035-24.3164 46.8262-25.4883 49.3652-27.3926L60.6445-16.0645C61.1328-15.5273 61.6699-15.2832 62.4023-15.2832C63.5742-15.2832 64.3066-16.1133 64.3066-17.2363C64.3066-17.8711 64.0137-18.3105 63.5742-18.75L52.2461-30.1758C54.3457-32.7637 55.5664-36.084 55.5664-39.6973C55.5664-48.1934 48.6328-55.1758 40.1855-55.1758C31.6895-55.1758 24.7559-48.1934 24.7559-39.6973C24.7559-31.25 31.6895-24.3164 40.1855-24.3164ZM40.1855-27.3438C33.3984-27.3438 27.7344-32.9102 27.7344-39.7461C27.7344-46.582 33.3984-52.1973 40.1855-52.1973C47.0703-52.1973 52.5879-46.582 52.5879-39.7461C52.5879-32.9102 47.0703-27.3438 40.1855-27.3438Z"/>
  </g>
  <g id="Ultralight-S" transform="matrix(1 0 0 1 515.644 696)">
   <path d="M44.043 1.95312C64.502 1.95312 81.2988-14.7949 81.2988-35.2539C81.2988-55.7129 64.502-72.4609 44.043-72.4609C23.584-72.4609 6.83594-55.7129 6.83594-35.2539C6.83594-14.7949 23.584 1.95312 44.043 1.95312ZM44.043-0.244141C24.7559-0.244141 9.08203-15.9668 9.08203-35.2539C9.08203-54.541 24.7559-70.2637 44.043-70.2637C63.3789-70.2637 79.0527-54.541 79.0527-35.2539C79.0527-15.9668 63.3789-0.244141 44.043-0.244141ZM39.5996-24.5605C43.1641-24.5605 46.4844-25.7812 49.0723-27.8809L60.9375-15.9668C61.3281-15.4785 61.7188-15.2832 62.2559-15.2832C63.2324-15.2832 63.7695-15.918 63.7695-16.6992C63.7695-17.2852 63.4766-17.5293 63.1348-17.9688L51.2207-29.9805C53.4668-32.6172 54.834-36.0352 54.834-39.7461C54.834-48.0957 47.9492-55.0293 39.5996-55.0293C31.2012-55.0293 24.3652-48.0957 24.3652-39.7461C24.3652-31.3477 31.2012-24.5605 39.5996-24.5605ZM39.6484-26.709C32.4219-26.709 26.5137-32.6172 26.5137-39.7949C26.5137-47.0215 32.4219-52.9297 39.6484-52.9297C46.875-52.9297 52.7344-47.0215 52.7344-39.7949C52.7344-32.6172 46.875-26.709 39.6484-26.709Z"/>
  </g>
 </g>
</svg>
