<?xml version="1.0" encoding="UTF-8"?>
<!--Generator: Apple Native CoreSVG 149-->
<!DOCTYPE svg
PUBLIC "-//W3C//DTD SVG 1.1//EN"
       "http://www.w3.org/Graphics/SVG/1.1/DTD/svg11.dtd">
<svg version="1.1" xmlns="http://www.w3.org/2000/svg" xmlns:xlink="http://www.w3.org/1999/xlink" width="3300" height="2200">
 <!--glyph: "uni100309.medium", point size: 100.000000, font version: "Version 16.0d12e3", template writer version: "8"-->
 <g id="Notes">
  <rect height="2200" id="artboard" style="fill:white;opacity:1" width="3300" x="0" y="0"/>
  <line id="" style="fill:none;stroke:black;opacity:1;stroke-width:0.5;" x1="263" x2="3036" y1="292" y2="292"/>
  <text style="stroke:none;fill:black;font-family:-apple-system,&quot;SF Pro Display&quot;,&quot;SF Pro Text&quot;,Helvetica,sans-serif;font-weight:bold;" transform="matrix(1 0 0 1 263 322)">Weight/Scale Variations</text>
  <text style="stroke:none;fill:black;font-family:-apple-system,&quot;SF Pro Display&quot;,&quot;SF Pro Text&quot;,Helvetica,sans-serif;text-anchor:middle;" transform="matrix(1 0 0 1 559.711 322)">Ultralight</text>
  <text style="stroke:none;fill:black;font-family:-apple-system,&quot;SF Pro Display&quot;,&quot;SF Pro Text&quot;,Helvetica,sans-serif;text-anchor:middle;" transform="matrix(1 0 0 1 856.422 322)">Thin</text>
  <text style="stroke:none;fill:black;font-family:-apple-system,&quot;SF Pro Display&quot;,&quot;SF Pro Text&quot;,Helvetica,sans-serif;text-anchor:middle;" transform="matrix(1 0 0 1 1153.13 322)">Light</text>
  <text style="stroke:none;fill:black;font-family:-apple-system,&quot;SF Pro Display&quot;,&quot;SF Pro Text&quot;,Helvetica,sans-serif;text-anchor:middle;" transform="matrix(1 0 0 1 1449.84 322)">Regular</text>
  <text style="stroke:none;fill:black;font-family:-apple-system,&quot;SF Pro Display&quot;,&quot;SF Pro Text&quot;,Helvetica,sans-serif;text-anchor:middle;" transform="matrix(1 0 0 1 1746.56 322)">Medium</text>
  <text style="stroke:none;fill:black;font-family:-apple-system,&quot;SF Pro Display&quot;,&quot;SF Pro Text&quot;,Helvetica,sans-serif;text-anchor:middle;" transform="matrix(1 0 0 1 2043.27 322)">Semibold</text>
  <text style="stroke:none;fill:black;font-family:-apple-system,&quot;SF Pro Display&quot;,&quot;SF Pro Text&quot;,Helvetica,sans-serif;text-anchor:middle;" transform="matrix(1 0 0 1 2339.98 322)">Bold</text>
  <text style="stroke:none;fill:black;font-family:-apple-system,&quot;SF Pro Display&quot;,&quot;SF Pro Text&quot;,Helvetica,sans-serif;text-anchor:middle;" transform="matrix(1 0 0 1 2636.69 322)">Heavy</text>
  <text style="stroke:none;fill:black;font-family:-apple-system,&quot;SF Pro Display&quot;,&quot;SF Pro Text&quot;,Helvetica,sans-serif;text-anchor:middle;" transform="matrix(1 0 0 1 2933.4 322)">Black</text>
  <line id="" style="fill:none;stroke:black;opacity:1;stroke-width:0.5;" x1="263" x2="3036" y1="1903" y2="1903"/>
  <g id="" transform="matrix(1 0 0 1 263 1933)">
   <path d="M9.24805 0.830078C13.5547 0.830078 17.1387-2.74414 17.1387-7.05078C17.1387-11.3574 13.5449-14.9316 9.23828-14.9316C4.94141-14.9316 1.36719-11.3574 1.36719-7.05078C1.36719-2.74414 4.95117 0.830078 9.24805 0.830078ZM9.24805-0.654297C5.70312-0.654297 2.87109-3.49609 2.87109-7.05078C2.87109-10.6055 5.69336-13.4473 9.23828-13.4473C12.793-13.4473 15.6348-10.6055 15.6445-7.05078C15.6543-3.49609 12.8027-0.654297 9.24805-0.654297ZM9.22852-3.62305C9.69727-3.62305 9.9707-3.93555 9.9707-4.45312L9.9707-6.31836L12.002-6.31836C12.5-6.31836 12.832-6.57227 12.832-7.04102C12.832-7.51953 12.5195-7.7832 12.002-7.7832L9.9707-7.7832L9.9707-9.81445C9.9707-10.332 9.69727-10.6543 9.22852-10.6543C8.75977-10.6543 8.50586-10.3125 8.50586-9.81445L8.50586-7.7832L6.49414-7.7832C5.97656-7.7832 5.64453-7.51953 5.64453-7.04102C5.64453-6.57227 5.99609-6.31836 6.49414-6.31836L8.50586-6.31836L8.50586-4.45312C8.50586-3.95508 8.75977-3.62305 9.22852-3.62305Z"/>
  </g>
  <g id="" transform="matrix(1 0 0 1 281.506 1933)">
   <path d="M11.709 2.91016C17.1582 2.91016 21.6699-1.61133 21.6699-7.05078C21.6699-12.5 17.1484-17.0117 11.6992-17.0117C6.25977-17.0117 1.74805-12.5 1.74805-7.05078C1.74805-1.61133 6.26953 2.91016 11.709 2.91016ZM11.709 1.25C7.09961 1.25 3.41797-2.44141 3.41797-7.05078C3.41797-11.6602 7.08984-15.3516 11.6992-15.3516C16.3086-15.3516 20-11.6602 20.0098-7.05078C20.0195-2.44141 16.3184 1.25 11.709 1.25ZM11.6797-2.66602C12.207-2.66602 12.5098-3.01758 12.5098-3.59375L12.5098-6.23047L15.3223-6.23047C15.8691-6.23047 16.25-6.51367 16.25-7.03125C16.25-7.55859 15.8887-7.86133 15.3223-7.86133L12.5098-7.86133L12.5098-10.6836C12.5098-11.25 12.207-11.6113 11.6797-11.6113C11.1621-11.6113 10.8789-11.2305 10.8789-10.6836L10.8789-7.86133L8.07617-7.86133C7.50977-7.86133 7.13867-7.55859 7.13867-7.03125C7.13867-6.51367 7.5293-6.23047 8.07617-6.23047L10.8789-6.23047L10.8789-3.59375C10.8789-3.03711 11.1621-2.66602 11.6797-2.66602Z"/>
  </g>
  <g id="" transform="matrix(1 0 0 1 304.924 1933)">
   <path d="M14.9707 5.66406C21.9336 5.66406 27.6953-0.0976562 27.6953-7.05078C27.6953-14.0137 21.9238-19.7754 14.9609-19.7754C8.00781-19.7754 2.25586-14.0137 2.25586-7.05078C2.25586-0.0976562 8.01758 5.66406 14.9707 5.66406ZM14.9707 3.84766C8.93555 3.84766 4.08203-1.01562 4.08203-7.05078C4.08203-13.0957 8.92578-17.9492 14.9609-17.9492C21.0059-17.9492 25.8594-13.0957 25.8691-7.05078C25.8789-1.01562 21.0156 3.84766 14.9707 3.84766ZM14.9414-1.38672C15.5176-1.38672 15.8594-1.77734 15.8594-2.38281L15.8594-6.13281L19.7754-6.13281C20.3711-6.13281 20.7812-6.46484 20.7812-7.02148C20.7812-7.59766 20.3906-7.93945 19.7754-7.93945L15.8594-7.93945L15.8594-11.8652C15.8594-12.4805 15.5176-12.8711 14.9414-12.8711C14.375-12.8711 14.0527-12.4609 14.0527-11.8652L14.0527-7.93945L10.1465-7.93945C9.53125-7.93945 9.13086-7.59766 9.13086-7.02148C9.13086-6.46484 9.55078-6.13281 10.1465-6.13281L14.0527-6.13281L14.0527-2.38281C14.0527-1.79688 14.375-1.38672 14.9414-1.38672Z"/>
  </g>
  <text style="stroke:none;fill:black;font-family:-apple-system,&quot;SF Pro Display&quot;,&quot;SF Pro Text&quot;,Helvetica,sans-serif;font-weight:bold;" transform="matrix(1 0 0 1 263 1953)">Design Variations</text>
  <text style="stroke:none;fill:black;font-family:-apple-system,&quot;SF Pro Display&quot;,&quot;SF Pro Text&quot;,Helvetica,sans-serif;" transform="matrix(1 0 0 1 263 1971)">Symbols are supported in up to nine weights and three scales.</text>
  <text style="stroke:none;fill:black;font-family:-apple-system,&quot;SF Pro Display&quot;,&quot;SF Pro Text&quot;,Helvetica,sans-serif;" transform="matrix(1 0 0 1 263 1989)">For optimal layout with text and other symbols, vertically align</text>
  <text style="stroke:none;fill:black;font-family:-apple-system,&quot;SF Pro Display&quot;,&quot;SF Pro Text&quot;,Helvetica,sans-serif;" transform="matrix(1 0 0 1 263 2007)">symbols with the adjacent text.</text>
  <line id="" style="fill:none;stroke:#00AEEF;stroke-width:0.5;opacity:1.0;" x1="776" x2="776" y1="1919" y2="1933"/>
  <g id="" transform="matrix(1 0 0 1 776 1933)">
   <path d="M3.31055 0.126953C3.82812 0.126953 4.08203-0.0683594 4.26758-0.605469L5.52734-4.0625L11.2891-4.0625L12.5488-0.605469C12.7344-0.0683594 12.9883 0.126953 13.4961 0.126953C14.0137 0.126953 14.3457-0.185547 14.3457-0.673828C14.3457-0.839844 14.3164-0.986328 14.2383-1.20117L9.6582-13.3887C9.43359-13.9941 9.0332-14.2871 8.4082-14.2871C7.80273-14.2871 7.39258-13.9941 7.17773-13.3984L2.59766-1.19141C2.51953-0.976562 2.49023-0.830078 2.49023-0.664062C2.49023-0.175781 2.80273 0.126953 3.31055 0.126953ZM6.00586-5.53711L8.37891-12.1094L8.42773-12.1094L10.8008-5.53711Z"/>
  </g>
  <line id="" style="fill:none;stroke:#00AEEF;stroke-width:0.5;opacity:1.0;" x1="792.836" x2="792.836" y1="1919" y2="1933"/>
  <text style="stroke:none;fill:black;font-family:-apple-system,&quot;SF Pro Display&quot;,&quot;SF Pro Text&quot;,Helvetica,sans-serif;font-weight:bold;" transform="matrix(1 0 0 1 776 1953)">Margins</text>
  <text style="stroke:none;fill:black;font-family:-apple-system,&quot;SF Pro Display&quot;,&quot;SF Pro Text&quot;,Helvetica,sans-serif;" transform="matrix(1 0 0 1 776 1971)">Leading and trailing margins on the left and right side of each symbol</text>
  <text style="stroke:none;fill:black;font-family:-apple-system,&quot;SF Pro Display&quot;,&quot;SF Pro Text&quot;,Helvetica,sans-serif;" transform="matrix(1 0 0 1 776 1989)">can be adjusted by modifying the x-location of the margin guidelines.</text>
  <text style="stroke:none;fill:black;font-family:-apple-system,&quot;SF Pro Display&quot;,&quot;SF Pro Text&quot;,Helvetica,sans-serif;" transform="matrix(1 0 0 1 776 2007)">Modifications are automatically applied proportionally to all</text>
  <text style="stroke:none;fill:black;font-family:-apple-system,&quot;SF Pro Display&quot;,&quot;SF Pro Text&quot;,Helvetica,sans-serif;" transform="matrix(1 0 0 1 776 2025)">scales and weights.</text>
  <g id="" transform="matrix(1 0 0 1 1289 1933)">
   <path d="M2.8418 1.86523L4.54102 3.57422C5.40039 4.44336 6.38672 4.38477 7.31445 3.35938L17.4902-7.85156C17.7539-7.76367 18.0273-7.7832 18.3398-7.8418L19.4043-8.03711L20.0684-7.36328L20.0293-6.80664C19.9902-6.30859 20.1172-5.92773 20.6055-5.44922L21.3672-4.70703C21.8457-4.22852 22.4609-4.19922 22.9297-4.66797L25.8398-7.58789C26.3086-8.05664 26.2891-8.65234 25.8105-9.13086L25.0391-9.89258C24.5605-10.3711 24.1895-10.5273 23.7109-10.4883L23.1348-10.4395L22.4902-11.0742L22.7344-12.1973C22.8613-12.7637 22.7051-13.2031 22.1191-13.7891L19.9219-15.9766C16.582-19.2969 12.1484-19.2188 9.25781-16.3281C8.83789-15.918 8.80859-15.3418 9.04297-14.9512C9.27734-14.5898 9.73633-14.3555 10.3809-14.5215C11.8457-14.8633 13.3691-14.9219 14.7949-13.9844L14.209-12.5293C14.0137-12.0508 13.9844-11.6504 14.1113-11.2891L3.04688-0.898438C2.06055 0.0195312 1.98242 0.996094 2.8418 1.86523ZM10.752-15.957C13.1836-17.7344 16.4746-17.4316 18.7012-15.2051L21.1328-12.793C21.3672-12.5586 21.4062-12.373 21.3379-12.0312L21.0156-10.5469L22.5195-9.0625L23.5059-9.12109C23.7598-9.13086 23.8379-9.11133 24.0332-8.91602L24.6094-8.33984L22.168-5.89844L21.5918-6.47461C21.3965-6.66992 21.3672-6.74805 21.377-7.01172L21.4453-7.98828L19.9512-9.47266L18.4277-9.21875C18.1055-9.15039 17.959-9.17969 17.7148-9.41406L15.7129-11.416C15.459-11.6504 15.4297-11.8164 15.5859-12.1875L16.4648-14.2773C14.9023-15.7324 12.8711-16.3574 10.8398-15.7617C10.6836-15.7227 10.625-15.8496 10.752-15.957ZM5.27344 2.30469L4.10156 1.14258C3.63281 0.683594 3.74023 0.341797 4.14062-0.0195312L14.9512-10.1953L16.416-8.71094L6.42578 2.27539C6.07422 2.67578 5.74219 2.77344 5.27344 2.30469Z"/>
  </g>
  <text style="stroke:none;fill:black;font-family:-apple-system,&quot;SF Pro Display&quot;,&quot;SF Pro Text&quot;,Helvetica,sans-serif;font-weight:bold;" transform="matrix(1 0 0 1 1289 1953)">Exporting</text>
  <text style="stroke:none;fill:black;font-family:-apple-system,&quot;SF Pro Display&quot;,&quot;SF Pro Text&quot;,Helvetica,sans-serif;" transform="matrix(1 0 0 1 1289 1971)">Symbols should be outlined when exporting to ensure the</text>
  <text style="stroke:none;fill:black;font-family:-apple-system,&quot;SF Pro Display&quot;,&quot;SF Pro Text&quot;,Helvetica,sans-serif;" transform="matrix(1 0 0 1 1289 1989)">design is preserved when submitting to Xcode.</text>
  <text id="template-version" style="stroke:none;fill:black;font-family:-apple-system,&quot;SF Pro Display&quot;,&quot;SF Pro Text&quot;,Helvetica,sans-serif;text-anchor:end;" transform="matrix(1 0 0 1 3036 1933)">Template v.2.0</text>
  <text style="stroke:none;fill:black;font-family:-apple-system,&quot;SF Pro Display&quot;,&quot;SF Pro Text&quot;,Helvetica,sans-serif;text-anchor:end;" transform="matrix(1 0 0 1 3036 1951)">Requires Xcode 12 or greater</text>
  <text style="stroke:none;fill:black;font-family:-apple-system,&quot;SF Pro Display&quot;,&quot;SF Pro Text&quot;,Helvetica,sans-serif;text-anchor:end;" transform="matrix(1 0 0 1 3036 1969)">Generated from line.horizontal.3.decrease.circle.fill</text>
  <text style="stroke:none;fill:black;font-family:-apple-system,&quot;SF Pro Display&quot;,&quot;SF Pro Text&quot;,Helvetica,sans-serif;text-anchor:end;" transform="matrix(1 0 0 1 3036 1987)">Typeset at 100 points</text>
  <text style="stroke:none;fill:black;font-family:-apple-system,&quot;SF Pro Display&quot;,&quot;SF Pro Text&quot;,Helvetica,sans-serif;" transform="matrix(1 0 0 1 263 726)">Small</text>
  <text style="stroke:none;fill:black;font-family:-apple-system,&quot;SF Pro Display&quot;,&quot;SF Pro Text&quot;,Helvetica,sans-serif;" transform="matrix(1 0 0 1 263 1156)">Medium</text>
  <text style="stroke:none;fill:black;font-family:-apple-system,&quot;SF Pro Display&quot;,&quot;SF Pro Text&quot;,Helvetica,sans-serif;" transform="matrix(1 0 0 1 263 1586)">Large</text>
 </g>
 <g id="Guides">
  <g id="H-reference" style="fill:#27AAE1;stroke:none;" transform="matrix(1 0 0 1 339 696)">
   <path d="M0.976562 0L3.66211 0L12.9883-24.4629L45.752-24.4629L55.127 0L57.7637 0L30.6152-70.459L28.125-70.459ZM29.3457-67.1387L29.4434-67.1387L44.873-26.709L13.8672-26.709Z"/>
  </g>
  <line id="Baseline-S" style="fill:none;stroke:#27AAE1;opacity:1;stroke-width:0.5;" x1="263" x2="3036" y1="696" y2="696"/>
  <line id="Capline-S" style="fill:none;stroke:#27AAE1;opacity:1;stroke-width:0.5;" x1="263" x2="3036" y1="625.541" y2="625.541"/>
  <g id="H-reference" style="fill:#27AAE1;stroke:none;" transform="matrix(1 0 0 1 339 1126)">
   <path d="M0.976562 0L3.66211 0L12.9883-24.4629L45.752-24.4629L55.127 0L57.7637 0L30.6152-70.459L28.125-70.459ZM29.3457-67.1387L29.4434-67.1387L44.873-26.709L13.8672-26.709Z"/>
  </g>
  <line id="Baseline-M" style="fill:none;stroke:#27AAE1;opacity:1;stroke-width:0.5;" x1="263" x2="3036" y1="1126" y2="1126"/>
  <line id="Capline-M" style="fill:none;stroke:#27AAE1;opacity:1;stroke-width:0.5;" x1="263" x2="3036" y1="1055.54" y2="1055.54"/>
  <g id="H-reference" style="fill:#27AAE1;stroke:none;" transform="matrix(1 0 0 1 339 1556)">
   <path d="M0.976562 0L3.66211 0L12.9883-24.4629L45.752-24.4629L55.127 0L57.7637 0L30.6152-70.459L28.125-70.459ZM29.3457-67.1387L29.4434-67.1387L44.873-26.709L13.8672-26.709Z"/>
  </g>
  <line id="Baseline-L" style="fill:none;stroke:#27AAE1;opacity:1;stroke-width:0.5;" x1="263" x2="3036" y1="1556" y2="1556"/>
  <line id="Capline-L" style="fill:none;stroke:#27AAE1;opacity:1;stroke-width:0.5;" x1="263" x2="3036" y1="1485.54" y2="1485.54"/>
  <line id="left-margin" style="fill:none;stroke:#00AEEF;stroke-width:0.5;opacity:1.0;" x1="1391.3" x2="1391.3" y1="1030.79" y2="1150.12"/>
  <line id="right-margin" style="fill:none;stroke:#00AEEF;stroke-width:0.5;opacity:1.0;" x1="1508.39" x2="1508.39" y1="1030.79" y2="1150.12"/>
 </g>
 <g id="Symbols">
  <g id="Black-L" transform="matrix(1 0 0 1 2854.05 1556)">
   <path d="M79.3457 32.8613C116.748 32.8613 147.412 2.19727 147.412-35.2051C147.412-72.6074 116.748-103.271 79.2969-103.271C41.8945-103.271 11.2793-72.6074 11.2793-35.2051C11.2793 2.19727 41.9434 32.8613 79.3457 32.8613ZM48.877-46.5332C44.1895-46.5332 40.9668-49.4629 40.9668-53.8574C40.9668-58.252 44.1895-61.1816 48.877-61.1816L109.814-61.1816C114.502-61.1816 117.725-58.252 117.725-53.8574C117.725-49.4629 114.502-46.5332 109.814-46.5332ZM56.1035-24.4629C51.416-24.4629 48.1445-27.3926 48.1445-31.7871C48.1445-36.1328 51.416-39.209 56.1035-39.209L102.588-39.209C107.275-39.209 110.498-36.1328 110.498-31.7871C110.498-27.3926 107.275-24.4629 102.588-24.4629ZM63.3789-2.44141C58.6914-2.44141 55.4688-5.37109 55.4688-9.7168C55.4688-14.1113 58.6914-17.0898 63.3789-17.0898L95.3125-17.0898C100-17.0898 103.223-14.1113 103.223-9.7168C103.223-5.37109 100-2.44141 95.3125-2.44141Z"/>
  </g>
  <g id="Heavy-L" transform="matrix(1 0 0 1 2558.39 1556)">
   <path d="M78.2715 31.7871C115.088 31.7871 145.312 1.5625 145.312-35.2051C145.312-72.0215 115.039-102.246 78.2715-102.246C41.4551-102.246 11.2793-72.0215 11.2793-35.2051C11.2793 1.5625 41.5039 31.7871 78.2715 31.7871ZM46.6309-47.1191C42.4805-47.1191 39.5996-49.707 39.5996-53.6133C39.5996-57.5684 42.4805-60.1562 46.6309-60.1562L109.961-60.1562C114.111-60.1562 116.992-57.5684 116.992-53.6133C116.992-49.707 114.111-47.1191 109.961-47.1191ZM54.3945-25.1953C50.1953-25.1953 47.3145-27.832 47.3145-31.7383C47.3145-35.6445 50.1953-38.3301 54.3945-38.3301L102.197-38.3301C106.396-38.3301 109.277-35.6445 109.277-31.7383C109.277-27.832 106.396-25.1953 102.197-25.1953ZM62.3047-3.32031C58.1543-3.32031 55.2734-5.95703 55.2734-9.81445C55.2734-13.7207 58.1543-16.4062 62.3047-16.4062L94.2871-16.4062C98.4375-16.4062 101.367-13.7207 101.367-9.81445C101.367-5.95703 98.4375-3.32031 94.2871-3.32031Z"/>
  </g>
  <g id="Bold-L" transform="matrix(1 0 0 1 2262.88 1556)">
   <path d="M77.0996 30.5664C113.232 30.5664 142.92 0.878906 142.92-35.2539C142.92-71.3379 113.184-101.074 77.0508-101.074C40.9668-101.074 11.2793-71.3379 11.2793-35.2539C11.2793 0.878906 41.0156 30.5664 77.0996 30.5664ZM44.1406-47.7539C40.5273-47.7539 38.0371-50 38.0371-53.3691C38.0371-56.7871 40.5273-59.0332 44.1406-59.0332L110.156-59.0332C113.721-59.0332 116.211-56.7871 116.211-53.3691C116.211-50 113.721-47.7539 110.156-47.7539ZM52.4902-26.0254C48.877-26.0254 46.3867-28.2715 46.3867-31.6895C46.3867-35.0586 48.877-37.3535 52.4902-37.3535L101.758-37.3535C105.371-37.3535 107.861-35.0586 107.861-31.6895C107.861-28.2715 105.371-26.0254 101.758-26.0254ZM61.084-4.29688C57.5195-4.29688 55.0293-6.5918 55.0293-9.96094C55.0293-13.3301 57.5195-15.5762 61.084-15.5762L93.1641-15.5762C96.7285-15.5762 99.2188-13.3301 99.2188-9.96094C99.2188-6.5918 96.7285-4.29688 93.1641-4.29688Z"/>
  </g>
  <g id="Semibold-L" transform="matrix(1 0 0 1 1966.97 1556)">
   <path d="M76.2695 29.7363C111.914 29.7363 141.309 0.390625 141.309-35.2539C141.309-70.8984 111.865-100.244 76.2695-100.244C40.625-100.244 11.2793-70.8984 11.2793-35.2539C11.2793 0.390625 40.6738 29.7363 76.2695 29.7363ZM42.3828-48.1934C39.209-48.1934 36.9629-50.1953 36.9629-53.1738C36.9629-56.2012 39.209-58.2031 42.3828-58.2031L110.254-58.2031C113.428-58.2031 115.674-56.2012 115.674-53.1738C115.674-50.1953 113.428-48.1934 110.254-48.1934ZM51.1719-26.5625C47.998-26.5625 45.752-28.6133 45.752-31.6406C45.752-34.668 47.998-36.7188 51.1719-36.7188L101.465-36.7188C104.639-36.7188 106.885-34.668 106.885-31.6406C106.885-28.6133 104.639-26.5625 101.465-26.5625ZM60.2539-4.98047C57.0801-4.98047 54.834-6.98242 54.834-10.0098C54.834-12.9883 57.0801-15.0391 60.2539-15.0391L92.3828-15.0391C95.5566-15.0391 97.8027-12.9883 97.8027-10.0098C97.8027-6.98242 95.5566-4.98047 92.3828-4.98047Z"/>
  </g>
  <g id="Medium-L" transform="matrix(1 0 0 1 1670.87 1556)">
   <path d="M75.6836 29.1504C110.938 29.1504 140.088 0 140.088-35.2539C140.088-70.5078 110.889-99.6582 75.6348-99.6582C40.3809-99.6582 11.2793-70.5078 11.2793-35.2539C11.2793 0 40.3809 29.1504 75.6836 29.1504ZM41.0645-48.4863C38.2324-48.4863 36.1816-50.3418 36.1816-53.0273C36.1816-55.8105 38.2324-57.6172 41.0645-57.6172L110.352-57.6172C113.184-57.6172 115.234-55.8105 115.234-53.0273C115.234-50.3418 113.184-48.4863 110.352-48.4863ZM50.1953-27.002C47.3145-27.002 45.2637-28.8574 45.2637-31.5918C45.2637-34.3262 47.3145-36.1816 50.1953-36.1816L101.221-36.1816C104.102-36.1816 106.152-34.3262 106.152-31.5918C106.152-28.8574 104.102-27.002 101.221-27.002ZM59.668-5.51758C56.7383-5.51758 54.7363-7.32422 54.7363-10.0586C54.7363-12.793 56.7383-14.5996 59.668-14.5996L91.7969-14.5996C94.6289-14.5996 96.6797-12.793 96.6797-10.0586C96.6797-7.32422 94.6289-5.51758 91.7969-5.51758Z"/>
  </g>
  <g id="Regular-L" transform="matrix(1 0 0 1 1374.97 1556)">
   <path d="M74.8535 28.3203C109.668 28.3203 138.477-0.488281 138.477-35.2539C138.477-70.0684 109.619-98.877 74.8047-98.877C40.0391-98.877 11.2793-70.0684 11.2793-35.2539C11.2793-0.488281 40.0879 28.3203 74.8535 28.3203ZM39.3555-48.9258C36.9141-48.9258 35.1074-50.4883 35.1074-52.8809C35.1074-55.2734 36.9141-56.8359 39.3555-56.8359L110.498-56.8359C112.891-56.8359 114.697-55.2734 114.697-52.8809C114.697-50.4883 112.891-48.9258 110.498-48.9258ZM48.877-27.5879C46.3867-27.5879 44.6289-29.1504 44.6289-31.543C44.6289-33.9355 46.3867-35.5469 48.877-35.5469L100.928-35.5469C103.418-35.5469 105.176-33.9355 105.176-31.543C105.176-29.1504 103.418-27.5879 100.928-27.5879ZM58.8379-6.15234C56.3477-6.15234 54.5898-7.76367 54.5898-10.1562C54.5898-12.5 56.3477-14.0625 58.8379-14.0625L91.0156-14.0625C93.457-14.0625 95.2148-12.5 95.2148-10.1562C95.2148-7.76367 93.457-6.15234 91.0156-6.15234Z"/>
  </g>
  <g id="Light-L" transform="matrix(1 0 0 1 1079.18 1556)">
   <path d="M73.9258 27.3926C108.301 27.3926 136.621-0.927734 136.621-35.2539C136.621-69.6289 108.252-97.9492 73.9258-97.9492C39.5508-97.9492 11.2793-69.6289 11.2793-35.2539C11.2793-0.927734 39.5996 27.3926 73.9258 27.3926ZM38.2812-49.9023C36.377-49.9023 34.9609-51.1719 34.9609-52.9785C34.9609-54.834 36.377-56.1035 38.2812-56.1035L109.717-56.1035C111.572-56.1035 112.988-54.834 112.988-52.9785C112.988-51.1719 111.572-49.9023 109.717-49.9023ZM47.6562-28.8086C45.7031-28.8086 44.3359-30.0781 44.3359-31.9336C44.3359-33.7891 45.7031-35.0098 47.6562-35.0098L100.391-35.0098C102.246-35.0098 103.613-33.7891 103.613-31.9336C103.613-30.0781 102.246-28.8086 100.391-28.8086ZM57.4219-7.61719C55.4688-7.61719 54.1016-8.83789 54.1016-10.6934C54.1016-12.5488 55.4688-13.7695 57.4219-13.7695L90.625-13.7695C92.4805-13.7695 93.8477-12.5488 93.8477-10.6934C93.8477-8.83789 92.4805-7.61719 90.625-7.61719Z"/>
  </g>
  <g id="Thin-L" transform="matrix(1 0 0 1 783.693 1556)">
   <path d="M72.7051 26.1719C106.494 26.1719 134.18-1.51367 134.18-35.2539C134.18-69.043 106.494-96.7285 72.7051-96.7285C38.9648-96.7285 11.2793-69.043 11.2793-35.2539C11.2793-1.51367 38.9648 26.1719 72.7051 26.1719ZM36.8164-51.2695C35.6445-51.2695 34.8145-52.002 34.8145-53.1738C34.8145-54.2969 35.6445-55.0781 36.8164-55.0781L108.74-55.0781C109.863-55.0781 110.693-54.2969 110.693-53.1738C110.693-52.002 109.863-51.2695 108.74-51.2695ZM45.9961-30.4688C44.8242-30.4688 43.9453-31.25 43.9453-32.4219C43.9453-33.5449 44.8242-34.3262 45.9961-34.3262L99.6094-34.3262C100.684-34.3262 101.562-33.5449 101.562-32.4219C101.562-31.25 100.684-30.4688 99.6094-30.4688ZM55.5176-9.52148C54.3457-9.52148 53.5156-10.3027 53.5156-11.4258C53.5156-12.5977 54.3457-13.3301 55.5176-13.3301L90.0879-13.3301C91.1621-13.3301 92.041-12.5977 92.041-11.4258C92.041-10.3027 91.1621-9.52148 90.0879-9.52148Z"/>
  </g>
  <g id="Ultralight-L" transform="matrix(1 0 0 1 487.616 1556)">
   <path d="M72.1191 25.5371C105.566 25.5371 132.91-1.80664 132.91-35.2539C132.91-68.75 105.566-96.0938 72.1191-96.0938C38.623-96.0938 11.2793-68.75 11.2793-35.2539C11.2793-1.80664 38.623 25.5371 72.1191 25.5371ZM36.084-51.9043C35.3027-51.9043 34.7168-52.4414 34.7168-53.2227C34.7168-54.0527 35.3027-54.541 36.084-54.541L108.252-54.541C108.936-54.541 109.57-54.0527 109.57-53.2227C109.57-52.4414 108.936-51.9043 108.252-51.9043ZM45.1172-31.3477C44.3359-31.3477 43.75-31.8848 43.75-32.666C43.75-33.4473 44.3359-33.9844 45.1172-33.9844L99.2188-33.9844C99.9023-33.9844 100.537-33.4473 100.537-32.666C100.537-31.8848 99.9023-31.3477 99.2188-31.3477ZM54.541-10.498C53.7598-10.498 53.1738-11.0352 53.1738-11.8164C53.1738-12.5977 53.7598-13.1348 54.541-13.1348L89.7949-13.1348C90.4785-13.1348 91.0645-12.5977 91.0645-11.8164C91.0645-11.0352 90.4785-10.498 89.7949-10.498Z"/>
  </g>
  <g id="Black-M" transform="matrix(1 0 0 1 2870.97 1126)">
   <path d="M62.4023 18.457C91.9922 18.457 116.113-5.61523 116.113-35.2051C116.113-64.7949 91.9922-88.8672 62.4023-88.8672C32.8125-88.8672 8.74023-64.7949 8.74023-35.2051C8.74023-5.61523 32.8125 18.457 62.4023 18.457ZM40.332-43.7988C36.2793-43.7988 33.5938-46.2891 33.5938-50.0488C33.5938-53.8086 36.2793-56.3477 40.332-56.3477L84.4727-56.3477C88.5742-56.3477 91.2598-53.8086 91.2598-50.0488C91.2598-46.2891 88.5742-43.7988 84.4727-43.7988ZM45.0684-26.5625C41.0645-26.5625 38.2812-29.1016 38.2812-32.8613C38.2812-36.5723 41.0645-39.209 45.0684-39.209L79.7363-39.209C83.7891-39.209 86.5234-36.5723 86.5234-32.8613C86.5234-29.1016 83.7891-26.5625 79.7363-26.5625ZM49.8047-9.42383C45.8008-9.42383 43.0176-11.9141 43.0176-15.625C43.0176-19.4336 45.8008-21.9727 49.8047-21.9727L75.0488-21.9727C79.0527-21.9727 81.7871-19.4336 81.7871-15.625C81.7871-11.9141 79.0527-9.42383 75.0488-9.42383Z"/>
  </g>
  <g id="Heavy-M" transform="matrix(1 0 0 1 2575.19 1126)">
   <path d="M61.5234 17.5293C90.5273 17.5293 114.258-6.20117 114.258-35.2051C114.258-64.2578 90.5273-87.9883 61.4746-87.9883C32.4707-87.9883 8.74023-64.2578 8.74023-35.2051C8.74023-6.20117 32.4707 17.5293 61.5234 17.5293ZM38.1836-44.1406C34.5215-44.1406 32.0801-46.3867 32.0801-49.7559C32.0801-53.1738 34.5215-55.4199 38.1836-55.4199L84.8633-55.4199C88.4766-55.4199 90.918-53.1738 90.918-49.7559C90.918-46.3867 88.4766-44.1406 84.8633-44.1406ZM43.5547-27.0508C39.9414-27.0508 37.4512-29.2969 37.4512-32.7148C37.4512-36.0352 39.9414-38.3789 43.5547-38.3789L79.4922-38.3789C83.0566-38.3789 85.5469-36.0352 85.5469-32.7148C85.5469-29.2969 83.0566-27.0508 79.4922-27.0508ZM49.0234-10.0098C45.4102-10.0098 42.9199-12.2559 42.9199-15.625C42.9199-18.9941 45.4102-21.2891 49.0234-21.2891L74.0234-21.2891C77.6367-21.2891 80.127-18.9941 80.127-15.625C80.127-12.2559 77.6367-10.0098 74.0234-10.0098Z"/>
  </g>
  <g id="Bold-M" transform="matrix(1 0 0 1 2279.5 1126)">
   <path d="M60.498 16.5039C88.8672 16.5039 112.207-6.83594 112.207-35.2051C112.207-63.623 88.8672-86.9629 60.4492-86.9629C32.0312-86.9629 8.74023-63.623 8.74023-35.2051C8.74023-6.83594 32.0801 16.5039 60.498 16.5039ZM35.7422-44.5312C32.6172-44.5312 30.4199-46.4844 30.4199-49.4629C30.4199-52.3926 32.6172-54.3945 35.7422-54.3945L85.2539-54.3945C88.4277-54.3945 90.5762-52.3926 90.5762-49.4629C90.5762-46.4844 88.4277-44.5312 85.2539-44.5312ZM41.8457-27.5879C38.7207-27.5879 36.5234-29.541 36.5234-32.5195C36.5234-35.4492 38.7207-37.5 41.8457-37.5L79.1504-37.5C82.2754-37.5 84.4727-35.4492 84.4727-32.5195C84.4727-29.541 82.2754-27.5879 79.1504-27.5879ZM48.0957-10.6445C44.9707-10.6445 42.7734-12.6465 42.7734-15.5762C42.7734-18.5059 44.9707-20.5078 48.0957-20.5078L72.9004-20.5078C76.0254-20.5078 78.2227-18.5059 78.2227-15.5762C78.2227-12.6465 76.0254-10.6445 72.9004-10.6445Z"/>
  </g>
  <g id="Semibold-M" transform="matrix(1 0 0 1 1983.5 1126)">
   <path d="M59.7656 15.8203C87.7441 15.8203 110.791-7.27539 110.791-35.2539C110.791-63.2324 87.6953-86.2793 59.7656-86.2793C31.7871-86.2793 8.74023-63.2324 8.74023-35.2539C8.74023-7.27539 31.7871 15.8203 59.7656 15.8203ZM34.082-44.8242C31.25-44.8242 29.2969-46.582 29.2969-49.2188C29.2969-51.9043 31.25-53.6621 34.082-53.6621L85.5469-53.6621C88.3301-53.6621 90.332-51.9043 90.332-49.2188C90.332-46.582 88.3301-44.8242 85.5469-44.8242ZM40.6738-27.9297C37.8418-27.9297 35.8887-29.6875 35.8887-32.373C35.8887-35.0586 37.8418-36.8652 40.6738-36.8652L78.9551-36.8652C81.7383-36.8652 83.6914-35.0586 83.6914-32.373C83.6914-29.6875 81.7383-27.9297 78.9551-27.9297ZM47.5098-11.084C44.6777-11.084 42.7246-12.8906 42.7246-15.5273C42.7246-18.1641 44.6777-19.9707 47.5098-19.9707L72.1191-19.9707C74.9512-19.9707 76.9043-18.1641 76.9043-15.5273C76.9043-12.8906 74.9512-11.084 72.1191-11.084Z"/>
  </g>
  <g id="Medium-M" transform="matrix(1 0 0 1 1687.3 1126)">
   <path d="M59.2285 15.2344C86.9141 15.2344 109.766-7.61719 109.766-35.2539C109.766-62.8906 86.8652-85.7422 59.1797-85.7422C31.543-85.7422 8.74023-62.8906 8.74023-35.2539C8.74023-7.61719 31.5918 15.2344 59.2285 15.2344ZM32.8125-45.0195C30.2246-45.0195 28.418-46.6309 28.418-49.0234C28.418-51.5137 30.2246-53.125 32.8125-53.125L85.7422-53.125C88.2812-53.125 90.1367-51.5137 90.1367-49.0234C90.1367-46.6309 88.2812-45.0195 85.7422-45.0195ZM39.7949-28.2227C37.207-28.2227 35.4004-29.834 35.4004-32.2754C35.4004-34.7168 37.207-36.377 39.7949-36.377L78.7598-36.377C81.3477-36.377 83.1543-34.7168 83.1543-32.2754C83.1543-29.834 81.3477-28.2227 78.7598-28.2227ZM47.0215-11.4258C44.4336-11.4258 42.627-13.0859 42.627-15.5273C42.627-17.9199 44.4336-19.5312 47.0215-19.5312L71.5332-19.5312C74.1211-19.5312 75.8789-17.9199 75.8789-15.5273C75.8789-13.0859 74.1211-11.4258 71.5332-11.4258Z"/>
  </g>
  <g id="Regular-M" transform="matrix(1 0 0 1 1391.3 1126)">
   <path d="M58.5449 14.5508C85.791 14.5508 108.35-8.05664 108.35-35.2539C108.35-62.5 85.7422-85.0586 58.4961-85.0586C31.2988-85.0586 8.74023-62.5 8.74023-35.2539C8.74023-8.05664 31.3477 14.5508 58.5449 14.5508ZM31.1523-45.2637C28.9062-45.2637 27.2949-46.6797 27.2949-48.8281C27.2949-50.9766 28.9062-52.3926 31.1523-52.3926L86.0352-52.3926C88.2324-52.3926 89.8926-50.9766 89.8926-48.8281C89.8926-46.6797 88.2324-45.2637 86.0352-45.2637ZM38.623-28.5645C36.3281-28.5645 34.7656-29.9805 34.7656-32.1777C34.7656-34.3262 36.3281-35.7422 38.623-35.7422L78.5645-35.7422C80.8105-35.7422 82.373-34.3262 82.373-32.1777C82.373-29.9805 80.8105-28.5645 78.5645-28.5645ZM46.3867-11.8652C44.1406-11.8652 42.5781-13.3301 42.5781-15.4785C42.5781-17.5781 44.1406-18.9941 46.3867-18.9941L70.752-18.9941C72.998-18.9941 74.6094-17.5781 74.6094-15.4785C74.6094-13.3301 72.998-11.8652 70.752-11.8652Z"/>
  </g>
  <g id="Light-M" transform="matrix(1 0 0 1 1095.42 1126)">
   <path d="M57.7148 13.7207C84.5215 13.7207 106.689-8.44727 106.689-35.2539C106.689-62.1094 84.5215-84.2285 57.666-84.2285C30.8594-84.2285 8.74023-62.1094 8.74023-35.2539C8.74023-8.44727 30.9082 13.7207 57.7148 13.7207ZM30.1758-46.1914C28.418-46.1914 27.1484-47.2656 27.1484-48.9258C27.1484-50.6348 28.418-51.709 30.1758-51.709L85.4004-51.709C87.0605-51.709 88.3301-50.6348 88.3301-48.9258C88.3301-47.2656 87.0605-46.1914 85.4004-46.1914ZM37.5-29.6875C35.7422-29.6875 34.5215-30.8105 34.5215-32.5195C34.5215-34.1797 35.7422-35.3027 37.5-35.3027L78.0273-35.3027C79.7852-35.3027 81.0059-34.1797 81.0059-32.5195C81.0059-30.8105 79.7852-29.6875 78.0273-29.6875ZM45.1172-13.1836C43.3594-13.1836 42.1387-14.3066 42.1387-15.9668C42.1387-17.627 43.3594-18.75 45.1172-18.75L70.4102-18.75C72.1191-18.75 73.3398-17.627 73.3398-15.9668C73.3398-14.3066 72.1191-13.1836 70.4102-13.1836Z"/>
  </g>
  <g id="Thin-M" transform="matrix(1 0 0 1 799.806 1126)">
   <path d="M56.6406 12.5977C82.9102 12.5977 104.492-8.98438 104.492-35.2539C104.492-61.5723 82.9102-83.1543 56.5918-83.1543C30.3223-83.1543 8.74023-61.5723 8.74023-35.2539C8.74023-8.98438 30.3223 12.5977 56.6406 12.5977ZM28.8574-47.3633C27.7832-47.3633 27.002-48.0469 27.002-49.0723C27.002-50.1465 27.7832-50.8301 28.8574-50.8301L84.5215-50.8301C85.498-50.8301 86.2793-50.1465 86.2793-49.0723C86.2793-48.0469 85.498-47.3633 84.5215-47.3633ZM35.9863-31.2012C34.9121-31.2012 34.1309-31.8848 34.1309-32.959C34.1309-33.9844 34.9121-34.668 35.9863-34.668L77.3926-34.668C78.3691-34.668 79.1504-33.9844 79.1504-32.959C79.1504-31.8848 78.3691-31.2012 77.3926-31.2012ZM43.457-14.8926C42.3828-14.8926 41.6016-15.5762 41.6016-16.6504C41.6016-17.6758 42.3828-18.3594 43.457-18.3594L69.9219-18.3594C70.9473-18.3594 71.7285-17.6758 71.7285-16.6504C71.7285-15.5762 70.9473-14.8926 69.9219-14.8926Z"/>
  </g>
  <g id="Ultralight-M" transform="matrix(1 0 0 1 503.656 1126)">
   <path d="M56.0547 12.0605C82.0801 12.0605 103.369-9.22852 103.369-35.2539C103.369-61.2793 82.0801-82.5684 56.0547-82.5684C30.0293-82.5684 8.74023-61.2793 8.74023-35.2539C8.74023-9.22852 30.0293 12.0605 56.0547 12.0605ZM28.1738-47.9492C27.4902-47.9492 26.9531-48.4375 26.9531-49.1699C26.9531-49.9023 27.4902-50.3906 28.1738-50.3906L84.0332-50.3906C84.7168-50.3906 85.2539-49.9023 85.2539-49.1699C85.2539-48.4375 84.7168-47.9492 84.0332-47.9492ZM35.2539-31.9336C34.5215-31.9336 33.9844-32.4219 33.9844-33.1543C33.9844-33.8867 34.5215-34.375 35.2539-34.375L77.002-34.375C77.6855-34.375 78.2227-33.8867 78.2227-33.1543C78.2227-32.4219 77.6855-31.9336 77.002-31.9336ZM42.5781-15.7715C41.8457-15.7715 41.3086-16.2598 41.3086-16.9434C41.3086-17.6758 41.8457-18.1641 42.5781-18.1641L69.6777-18.1641C70.3125-18.1641 70.8984-17.6758 70.8984-16.9434C70.8984-16.2598 70.3125-15.7715 69.6777-15.7715Z"/>
  </g>
  <g id="Black-S" transform="matrix(1 0 0 1 2884.57 696)">
   <path d="M48.8281 6.78711C71.9727 6.78711 90.8203-12.0605 90.8203-35.2051C90.8203-58.3496 71.9727-77.1973 48.8281-77.1973C25.6836-77.1973 6.83594-58.3496 6.83594-35.2051C6.83594-12.0605 25.6836 6.78711 48.8281 6.78711ZM31.4453-41.9434C28.2715-41.9434 26.1719-43.8965 26.1719-46.8262C26.1719-49.7559 28.2715-51.709 31.4453-51.709L66.2109-51.709C69.3848-51.709 71.4844-49.7559 71.4844-46.8262C71.4844-43.8965 69.3848-41.9434 66.2109-41.9434ZM35.2051-28.4668C32.0801-28.4668 29.9316-30.4199 29.9316-33.3496C29.9316-36.2305 32.0801-38.2812 35.2051-38.2812L62.4512-38.2812C65.5762-38.2812 67.7246-36.2305 67.7246-33.3496C67.7246-30.4199 65.5762-28.4668 62.4512-28.4668ZM38.9648-15.0391C35.8398-15.0391 33.6914-16.9922 33.6914-19.873C33.6914-22.8027 35.8398-24.8047 38.9648-24.8047L58.6914-24.8047C61.8164-24.8047 63.9648-22.8027 63.9648-19.873C63.9648-16.9922 61.8164-15.0391 58.6914-15.0391Z"/>
  </g>
  <g id="Heavy-S" transform="matrix(1 0 0 1 2588.47 696)">
   <path d="M48.2422 6.15234C70.9961 6.15234 89.5996-12.4512 89.5996-35.2051C89.5996-57.959 70.9961-76.6113 48.1934-76.6113C25.4395-76.6113 6.83594-57.959 6.83594-35.2051C6.83594-12.4512 25.4395 6.15234 48.2422 6.15234ZM29.8828-42.1387C27.002-42.1387 25.0488-43.8965 25.0488-46.582C25.0488-49.2676 27.002-51.0742 29.8828-51.0742L66.5527-51.0742C69.4336-51.0742 71.3867-49.2676 71.3867-46.582C71.3867-43.8965 69.4336-42.1387 66.5527-42.1387ZM34.1797-28.7109C31.2988-28.7109 29.3457-30.5176 29.3457-33.2031C29.3457-35.8398 31.2988-37.6953 34.1797-37.6953L62.3047-37.6953C65.1367-37.6953 67.1387-35.8398 67.1387-33.2031C67.1387-30.5176 65.1367-28.7109 62.3047-28.7109ZM38.4766-15.332C35.6445-15.332 33.6426-17.1387 33.6426-19.7754C33.6426-22.4609 35.6445-24.3164 38.4766-24.3164L57.959-24.3164C60.8398-24.3164 62.793-22.4609 62.793-19.7754C62.793-17.1387 60.8398-15.332 57.959-15.332Z"/>
  </g>
  <g id="Bold-S" transform="matrix(1 0 0 1 2292.44 696)">
   <path d="M47.5586 5.46875C69.873 5.46875 88.2324-12.8906 88.2324-35.2539C88.2324-57.5684 69.873-75.9277 47.5098-75.9277C25.1953-75.9277 6.83594-57.5684 6.83594-35.2539C6.83594-12.8906 25.1953 5.46875 47.5586 5.46875ZM28.125-42.2852C25.5859-42.2852 23.7793-43.8965 23.7793-46.3379C23.7793-48.7305 25.5859-50.3418 28.125-50.3418L66.9434-50.3418C69.5312-50.3418 71.3379-48.7305 71.3379-46.3379C71.3379-43.8965 69.5312-42.2852 66.9434-42.2852ZM33.0078-28.9551C30.4199-28.9551 28.6621-30.5664 28.6621-33.0078C28.6621-35.4004 30.4199-37.0605 33.0078-37.0605L62.1094-37.0605C64.6973-37.0605 66.4551-35.4004 66.4551-33.0078C66.4551-30.5664 64.6973-28.9551 62.1094-28.9551ZM37.9395-15.6738C35.4004-15.6738 33.5938-17.2852 33.5938-19.6777C33.5938-22.1191 35.4004-23.7305 37.9395-23.7305L57.1289-23.7305C59.7168-23.7305 61.5234-22.1191 61.5234-19.6777C61.5234-17.2852 59.7168-15.6738 57.1289-15.6738Z"/>
  </g>
  <g id="Semibold-S" transform="matrix(1 0 0 1 1996.2 696)">
   <path d="M47.0703 4.98047C69.0918 4.98047 87.3047-13.1836 87.3047-35.2539C87.3047-57.2754 69.0918-75.4883 47.0215-75.4883C25-75.4883 6.83594-57.2754 6.83594-35.2539C6.83594-13.1836 25.0488 4.98047 47.0703 4.98047ZM26.9531-42.4316C24.6094-42.4316 22.9492-43.9453 22.9492-46.1426C22.9492-48.3887 24.6094-49.8535 26.9531-49.8535L67.2363-49.8535C69.5801-49.8535 71.2402-48.3887 71.2402-46.1426C71.2402-43.9453 69.5801-42.4316 67.2363-42.4316ZM32.1777-29.1504C29.834-29.1504 28.1738-30.6152 28.1738-32.8613C28.1738-35.1074 29.834-36.6211 32.1777-36.6211L62.0117-36.6211C64.3555-36.6211 66.0156-35.1074 66.0156-32.8613C66.0156-30.6152 64.3555-29.1504 62.0117-29.1504ZM37.5977-15.918C35.2051-15.918 33.5938-17.3828 33.5938-19.6289C33.5938-21.8262 35.2051-23.3398 37.5977-23.3398L56.5918-23.3398C58.9355-23.3398 60.5957-21.8262 60.5957-19.6289C60.5957-17.3828 58.9355-15.918 56.5918-15.918Z"/>
  </g>
  <g id="Medium-S" transform="matrix(1 0 0 1 1699.83 696)">
   <path d="M46.7285 4.63867C68.5547 4.63867 86.6211-13.4277 86.6211-35.2539C86.6211-57.0801 68.5059-75.1465 46.6797-75.1465C24.8535-75.1465 6.83594-57.0801 6.83594-35.2539C6.83594-13.4277 24.9023 4.63867 46.7285 4.63867ZM26.0254-42.5293C23.8281-42.5293 22.2656-43.9453 22.2656-45.9961C22.2656-48.0957 23.8281-49.5117 26.0254-49.5117L67.4316-49.5117C69.6289-49.5117 71.1914-48.0957 71.1914-45.9961C71.1914-43.9453 69.6289-42.5293 67.4316-42.5293ZM31.5918-29.2969C29.3457-29.2969 27.832-30.6641 27.832-32.8125C27.832-34.9121 29.3457-36.2793 31.5918-36.2793L61.9141-36.2793C64.1113-36.2793 65.6738-34.9121 65.6738-32.8125C65.6738-30.6641 64.1113-29.2969 61.9141-29.2969ZM37.3047-16.0645C35.1074-16.0645 33.5449-17.4805 33.5449-19.5801C33.5449-21.6309 35.1074-23.0469 37.3047-23.0469L56.1523-23.0469C58.3984-23.0469 59.9121-21.6309 59.9121-19.5801C59.9121-17.4805 58.3984-16.0645 56.1523-16.0645Z"/>
  </g>
  <g id="Regular-S" transform="matrix(1 0 0 1 1403.58 696)">
   <path d="M46.2402 4.15039C67.7734 4.15039 85.6934-13.7207 85.6934-35.2539C85.6934-56.7871 67.7246-74.6582 46.1914-74.6582C24.707-74.6582 6.83594-56.7871 6.83594-35.2539C6.83594-13.7207 24.7559 4.15039 46.2402 4.15039ZM24.8535-42.6758C22.8516-42.6758 21.4355-43.9453 21.4355-45.8008C21.4355-47.7539 22.8516-49.0234 24.8535-49.0234L67.7246-49.0234C69.6777-49.0234 71.1426-47.7539 71.1426-45.8008C71.1426-43.9453 69.6777-42.6758 67.7246-42.6758ZM30.7617-29.4922C28.7598-29.4922 27.3438-30.7617 27.3438-32.666C27.3438-34.6191 28.7598-35.8887 30.7617-35.8887L61.7676-35.8887C63.8184-35.8887 65.2344-34.6191 65.2344-32.666C65.2344-30.7617 63.8184-29.4922 61.7676-29.4922ZM36.9629-16.3086C34.9609-16.3086 33.5449-17.5781 33.5449-19.5312C33.5449-21.3867 34.9609-22.6562 36.9629-22.6562L55.6152-22.6562C57.6172-22.6562 59.0332-21.3867 59.0332-19.5312C59.0332-17.5781 57.6172-16.3086 55.6152-16.3086Z"/>
  </g>
  <g id="Light-S" transform="matrix(1 0 0 1 1107.6 696)">
   <path d="M45.5078 3.41797C66.6992 3.41797 84.2285-14.0625 84.2285-35.2539C84.2285-56.4453 66.6504-73.9258 45.5078-73.9258C24.3164-73.9258 6.83594-56.4453 6.83594-35.2539C6.83594-14.0625 24.3652 3.41797 45.5078 3.41797ZM23.9746-43.457C22.4609-43.457 21.3379-44.4336 21.3379-45.8984C21.3379-47.4121 22.4609-48.4375 23.9746-48.4375L67.1387-48.4375C68.6523-48.4375 69.7754-47.4121 69.7754-45.8984C69.7754-44.4336 68.6523-43.457 67.1387-43.457ZM29.7852-30.4688C28.2227-30.4688 27.0996-31.4453 27.0996-32.959C27.0996-34.4727 28.2227-35.4492 29.7852-35.4492L61.3281-35.4492C62.8906-35.4492 63.9648-34.4727 63.9648-32.959C63.9648-31.4453 62.8906-30.4688 61.3281-30.4688ZM35.8398-17.4805C34.2773-17.4805 33.1543-18.457 33.1543-19.9707C33.1543-21.4355 34.2773-22.4121 35.8398-22.4121L55.2734-22.4121C56.8359-22.4121 57.959-21.4355 57.959-19.9707C57.959-18.457 56.8359-17.4805 55.2734-17.4805Z"/>
  </g>
  <g id="Thin-S" transform="matrix(1 0 0 1 811.867 696)">
   <path d="M44.5801 2.49023C65.2832 2.49023 82.2754-14.5508 82.2754-35.2539C82.2754-55.957 65.2344-72.998 44.5312-72.998C23.8281-72.998 6.83594-55.957 6.83594-35.2539C6.83594-14.5508 23.877 2.49023 44.5801 2.49023ZM22.8516-44.4824C21.875-44.4824 21.1914-45.1172 21.1914-46.0449C21.1914-47.0215 21.875-47.6074 22.8516-47.6074L66.3574-47.6074C67.2852-47.6074 67.9688-47.0215 67.9688-46.0449C67.9688-45.1172 67.2852-44.4824 66.3574-44.4824ZM28.4668-31.7871C27.4902-31.7871 26.8066-32.4219 26.8066-33.3496C26.8066-34.2773 27.4902-34.9121 28.4668-34.9121L60.7422-34.9121C61.6699-34.9121 62.3535-34.2773 62.3535-33.3496C62.3535-32.4219 61.6699-31.7871 60.7422-31.7871ZM34.3262-18.9453C33.3984-18.9453 32.666-19.5801 32.666-20.5078C32.666-21.4355 33.3984-22.0703 34.3262-22.0703L54.8828-22.0703C55.8105-22.0703 56.4941-21.4355 56.4941-20.5078C56.4941-19.5801 55.8105-18.9453 54.8828-18.9453Z"/>
  </g>
  <g id="Ultralight-S" transform="matrix(1 0 0 1 515.644 696)">
   <path d="M44.043 1.95312C64.502 1.95312 81.2988-14.7949 81.2988-35.2539C81.2988-55.7129 64.502-72.4609 44.043-72.4609C23.584-72.4609 6.83594-55.7129 6.83594-35.2539C6.83594-14.7949 23.584 1.95312 44.043 1.95312ZM22.2656-45.0195C21.582-45.0195 21.0938-45.459 21.0938-46.1426C21.0938-46.7773 21.582-47.2168 22.2656-47.2168L65.9668-47.2168C66.5527-47.2168 67.041-46.7773 67.041-46.1426C67.041-45.459 66.5527-45.0195 65.9668-45.0195ZM27.7832-32.4707C27.1484-32.4707 26.6602-32.9102 26.6602-33.5449C26.6602-34.1797 27.1484-34.6191 27.7832-34.6191L60.4004-34.6191C61.0352-34.6191 61.5234-34.1797 61.5234-33.5449C61.5234-32.9102 61.0352-32.4707 60.4004-32.4707ZM33.5938-19.7266C32.9102-19.7266 32.4219-20.166 32.4219-20.8496C32.4219-21.4844 32.9102-21.9238 33.5938-21.9238L54.6387-21.9238C55.2734-21.9238 55.7617-21.4844 55.7617-20.8496C55.7617-20.166 55.2734-19.7266 54.6387-19.7266Z"/>
  </g>
 </g>
</svg>
